<mxfile host="Electron" agent="Mozilla/5.0 (Windows NT 10.0; Win64; x64) AppleWebKit/537.36 (KHTML, like Gecko) draw.io/27.0.2 Chrome/134.0.6998.205 Electron/35.3.0 Safari/537.36" version="27.0.2">
  <diagram name="Page-1" id="AN8ZyKG6eeDXNzB4y_ao">
    <mxGraphModel dx="1052" dy="825" grid="1" gridSize="10" guides="1" tooltips="1" connect="1" arrows="1" fold="1" page="1" pageScale="1" pageWidth="1169" pageHeight="827" math="0" shadow="0">
      <root>
        <mxCell id="0" />
        <mxCell id="1" parent="0" />
        <mxCell id="sP2bypRe-vGym_zLNqmd-1" value="" style="shape=image;verticalLabelPosition=bottom;labelBackgroundColor=default;verticalAlign=top;aspect=fixed;imageAspect=0;image=data:image/png,iVBORw0KGgoAAAANSUhEUgAAAU4AAAGsCAYAAACy307gAAAAAXNSR0IArs4c6QAAAARnQU1BAACxjwv8YQUAAAAJcEhZcwAADsMAAA7DAcdvqGQAADYhSURBVHhe7d197BXVncfxI09SBIkI68KKIAUpoKCA5SEEYanyUMA/EPyrYIgbhDVi2ibQTSXsihGShaqhsqQRAbMJolsjUqAKAUwRyhYRkLIIshJA7PIkEMBEF7fv43zvDpf7cM7vN9zfA59XcnPvnXvuzJkzZ75zzpl7Z25o3rz5t05ERII1SJ5FRCSQAqeISCQFThGRSAqcIiKRFDhFRCIpcIqIRFLgFBGJpMApIhJJgVNEJFLJfw6NGDHCzZw5M3l3tbVr17pdu3YpTRFKozTFkGbevHnJO6lrSgbObt26ubFjxybvrkblOHz4sNIUoTRKUwxp1q1bl7yTukb/VRcRiaQxThGRSBrjLEBplKaYLNNojLPu0hhnAUqjNMVkmUZjnHWXxjhFRCJpjFNEJJICp4hIJAVOEZFICpwiIpEUOEVEIilwiohEUuAUEYmkwCkiEkmB86/4a+mTTz6ZvBMRKS3on0MElQceeMC1adPGXbx40e3evdvNnz/fnThxIklR+xAMe/Xq5VatWuX27duXTC1szZo1rlmzZm7u3Lk1+jc4/uI6adIk17NnT58f8Ne8FStWuK1bt/r3WYkpHxG5UtkWJ0HzkUce8a+5MAFBs3///m7BggV+Wm1FUBg5cqTr0KFDMqU4AicBaseOHcmUyiNocjCibA8cOODLetu2bX49hg8fnqTKTkz5iMiVygbOUaNG+ZbltGnT/NVcuOILO3X79u3d5MmTk1R128KFC9306dNrtAX99NNP+1bm8uXLfV6srKdOnepmz56dpBKR2iDosnL5l8CidbRo0SLfIuLzxYsX+51+48aNvnXK6yNHjrh33nnHrVy5MvmW84GWVg5dfvD9dJd/06ZN/pn3tGgJ1gRoe0931ZYNhg2sdWZd7BkzZvhlFDNkyBD/XOiSefZZ2oQJE9z48eOLDlMUWvf9+/e7pUuXBnev88uzlHJlWC4/oeWDLLaXSH3UsEmTJkWbM71793b333+/+4//+A938ODBZKpzJ0+edI899pi7cOGCW716tRszZozr1KmTa9eunfvoo4/cZ5995rp06eLuvfde9+GHH/r0BKDHH3/cB5/333/fHTt2zM9/8ODB7q233vLzve2229zly5fdHXfc4f4a0N358+f9cnv06OG6du3q07ETN2zY0E8/d+6c72rSlf3iiy/8tBYtWvjvMZ/WrVv7nX3Pnj3+Mx5btmzxy2rcuHFuPpaW4JJGngkGluevv/7a9e3b13dzWW/Yujdt2tSv+6lTp/x6W35DMM9Bgwb5vG7fvj2ZerWQMiyXn9DyyWp7idRHJbvqd955Z/IqzCuvvOK7lTzefPNN39oZNmyY/4wdmpYIrTdar5aGFsqAAQN8GqYfOnTIvz5z5oxvfZGOFhPpwIkM0llXlsAGxgZByzM9H1pFlp6HSc/H0uazvM+aNcunowtNXggKtBLTXnjhBZ+GPBGMLL8xCDqlhJShKZaf0PLJanuJ1EclAyc7Toz0GeklS5b455tuusk/syPRWmRHtcfEiRP9Zy1btvTPaZysMVOmTMl1IZkHJ6zokvKYM2eOn962bVv/nCUCJEEgfdbZAkX+SZV0GoJIVdCSLSWmDKubn6y2l0h9VDJwfv755/45f4dmh0LsDsnOxU9+8h8xZ7MZO+OE1fHjx30QK9ZaZBihruBq4WCoo5wsyhAh5ZPVskTqm5KBkxYkY1yMwVmwhJ1N/+STT/yz4YSLYYwsjZNFjHuy0zHf9CO0Zcv8aQkxFkmXkK6itWzzWbc3JBgVU6hbzvghLNhlgdYhy+IAVeqXClmUoSlXPlkuS6S+KXlyCLfffrvfoYcOHeqDBmNfvGbHYuwPTONEA91X0tJN+/GPf+xPwNBC5OTQpUuX/PdGjx7t7rnnHtenTx9/QuTBBx/03UCC4rhx4/wymFejRo18mtOnT/vvg/nx/Ztvvtl98803/mTFU0895U8ScdKDkxV2cuXs2bM+bffu3X0A6Nevn18eJzOOHj3qA9RDDz3kp9ky+T7vmReBhTFaTo7xXdJwMODEB0Hu1Vdf9cuxdU+fWGIeLDP/ZFMpnMQZOHCgP0gxtnrXXXf5+bDMzp07+/UqV4YIzU+58slie4nUV2UDJ2dZOWPasWNHHxRbtWrlWyG0+GiNwnbWt99+2+/8BJcvv/zSLVu2zG3evNmnIRBx5pvvExzYWXkwbf369X4n5KcvzAcEbD7/+OOPc60jdsgGDRr4f9ZwJp08vffee37MjR2YIGDBgbwRjAg65NuWt2HDBh8YnnjiCX9CiWm2TEvD2WHWe+/evX4+rA/zIGCz7s8999xV617dwEme+AUC8/qbv/mbXJ45k89Prnbu3Fm2DBGan3Llk8X2EqmvMrlZGydp6NLqhICIXA/K/nNIRESupMApIhJJgVNEJFImY5wiItcTtThFRCIpcIqIRFLgFBGJpMApIhJJgVNEJJICp4hIpKBbZxTDLSu49JjSFKY0SlMMadIXjpa6pWTg5HJqY8eOTd5djcrB5dWUpjClUZpiSMMl+qRu0g/gRUQiaYxTRCSSxjgLUBqlKSbLNBrjrLs0xlmA0ihNMVmm0Rhn3aUxThGRSBrjFBGJpMApIhJJgVNEJJICp4hIJAVOEZFICpwiIpEUOEVEIilwiohEUuAUEYmkwCkiEkmBU0QkkgKniEgkBU4RkUgKnCIikRQ4RUQiKXCKiERS4BQRiaTAKSISSYFTRCSSAqeISCQFThGRSAqcIiKRFDhFRCIpcIqIRFLgFBGJpMApIhJJgVNEJNINzZs3/zZ5fc2MGDHCzZw5M3nn3P79+92UKVOSdyIidUvJwLl48WLXrFkz95Of/CSZ8v9mzJjhRo4c6X7xi1+4rVu3JlML69atmxs7dqx/3bdvX3f69Ol6FTg5MPTq1cutWrXK7du3L5l6bVCWkyZNcj179vTbBrt27XIrVqwoux3yzZ492w0ZMsRdvHjRjRo1KpkaL4v5UJ+oG23atPHvWae1a9e6devW+fcitUnZrnr79u2TV4WF7KwEk3nz5vkHQbO+IWhyEOnQoUMy5dogaM6fP9/179/fHThwwAeWbdu2+eUPHz48SRWuR48evvVPACb4V1V15zN58mRffl999VVunbp06eKeeuqpXCAVqU1KBs5Dhw4lr77DTsHOi06dOvlnqZynn37aB6fly5e76dOn+wMRQyBTp071rb4YAwYM8EFpw4YNvqVIMK6KLOZD4MdPf/rT3DrRqv7Zz37mTpw44T8TqU2CTg4RLNlBqNCPPvpoMvW7sUpDq+GNN95wmzZt8o+5c+dWqbVAcH7xxRdz82GedOPSJkyYkFvWmjVrrlgW37fl8xkP8mavLfCjunkmX3yP1hIoH5sXj7RSeQ5Bvrt27epbY0uWLEmmfqcqwwN9+vTxzxs3bnS7d+/2rcaqyGI+ly5d8s+dO3f2zyBg5q9Xue1l00lDfX3ttdeueM+D9/kHmULTq7ssqd9KBs7//u//9s90QemyU5nbtm3rp9n4GggKEydO9K/palGBGINbsGCBnxaKoEfwoZvGPJgX3TcCExUZLGvatGn+NZ/TZaWVM2fOHD/N3HLLLW7p0qU+n7RoNm/e7F/bWGsWebZxODuAENR4bw8TmudSbBjg6NGj/rm67rnnHp9vtuknn3zig0L6oBIqi/lQ9njmmWf8wajQ90O2F9PJC3l4+OGH3bFjx3w63lP+DCsdOXLkquBuwxy///3v/XMWy5L6rWTgPHfuXPLKuTvvvNN9+umnrlWrVv49gfT48eP+9ZgxY/yOM378eN/V4sj95ptv+jQxR19ruT377LN+HsyLE1Mc7a2VNWzYMP88a9Ys/zldViowrbH0Dscww8qVK/3rzz//3Ae5tCzyzIkLvmtDGuw4vLeHCc1ziIMHDyavqo6dm2Vbvm2c2vIZqtx8rPVf7GE9CcqRk4wENerAokWL/PZg/iZkezHd8nLmzBl/ECYdZU06/PGPf/TzJW+GQMqyLf9ZLUvqr5KBc8eOHf6ZFhstOGtRGOtiUVGYnt4p7IjdsmVL/xyCliYVL/+EU/rMKjsqadLdOKvAMSdnsspziKzyDBsPrI6hQ4f6Z7YpwYtWOOOTlH+McvM5fPiwb5kVe6QPZmxzfmnBQZKy4ix9uoUXu73S82a+zA+vv/66f7b3BELmS0A1WS1L6q+SgZOjrmHnoOXGNOs2pz+n8lDp8x8WfGujrPJ84cKF5NW1QxBCu3bt/HN19O7d2z8zXEALj4cNacQoN5/0rykKPQr91IhpBB+CFQEs3frPYntRZ5kPXW9YN52TW2l1sT5L5ZQ9OURFI2hSidl5+TkRR2MQSEE3h1YGlYqKn36kg6uhBVYIY398VqqrTGuENOkurp3ht+ASIjbPpVj3uVhQyyLPBCHmQ1CyA1c51prKR9AgMNAyssfLL7/sP2N8L19W8ymm0LyNtfCy3F7kmQBPHumm8z7dG8hyWVI/NWzSpEnJ37H86Ec/crfeeqtr3bq1+9d//Vc3aNAgf/aTCv273/3On6ygy063bfTo0f5kAWdaSffggw/6lkMaP3Lu2LGj3xmptIwn0WJjPmfPnnUDBw70LZcf/OAHufmQZv369f77VPj777/f9evXzwcfq/wElVdffdXnje8QzLZs2eIee+wx//ovf/nLFdNj8lwO+WY+3bt39zsceWNely9f9utVLs+hTp065cuHMmQc8a677vLLYX6s9/bt25OU350V5uc8BGx2eEO5U77vvvuu27lzZzLVub179/qy+t///d9cWSOr+ZSybNky383noEAZsb1ZL7r9//zP/+zTlNtejFmOGzfOly91tVGjRj4NB/qTJ0/6eRjyS5nRGOBkZ/46ZLksqZ/Ktjg5q00FsyMtA+G8h41FskPRjbGzxdZta9q0qf887de//rU/wrMjkub73/9+rlXB/DgxxOe0Zmw+pDGc8LFWDZ8RqDib/ctf/tJPCxWT53Iom5deeskHNlpdNi+TVZ4pH4IY3yWfthxO2BFk0ugNMI3tlTZ48GD/nD+ODAJ5uqyR1XxKIdjCys5astQFU257EXR5T72CpSk2hsxPp6jHrFv+z7uyXpbUPxX5r7qISH1StsUpIiJXUuAUEYmkwCkiEkmBU0QkkgKniEgkBU4RkUgKnCIikRQ4RUQiKXCKiERS4BQRiaTAKSISSYFTRCSSAqeISCQFThGRSAqcIiKRFDhFRCIpcIqIRFLgFBGJpMApIhJJgVNEJJICp4hIJAVOEZFICpwiIpEUOEVEIilwiohEqnbgHDFihNu0aVPusXjx4uQTkWuDOvfkk08m70Qq74bmzZt/m7wuiEDYtWvX5N13du3a5VasWOG2bt3qunXr5saOHeun9+3b150+fdpNmTLFv79esCP36tXLrVq1yu3bty+ZKjFiynDNmjWuWbNmbu7cuW7dunXJVJHKCW5xrl271j+2bdvmunTp4p555hkfNKnk8+bN8w+C5vWIHX7kyJGuQ4cOyRSJFVOGBE4O3jt27EimiFRWcOC04Dhz5kz30ksv+SP+o48+mnwqUjkLFy5006dPdydOnEimiFRWcFd9yJAhyZTvMJ65f//+K7rlNr5ZrKs+efJk36po06aNf0/rdf78+bkdgBbsokWL/OuLFy+6AwcO+FZufndsxowZ7u6773bt27dPpjg/j/HjxyfvwpTLD+vDAWLjxo3ukUce8a9Z56VLl/phCvLB94tJl1m5ZVGe4P2CBQvctGnT/PrZe5YXasKECb4sWBbluHv37rLrdeTIEffOO++4lStX+jTIIs/ltmloGdKV56Cdll8nUZV1T29TkRANmzRpMjt5XdCYMWNc69atfcVKe+yxx9ypU6fc6tWrkynfpUV6mqFCP/74474yv//+++7YsWOud+/ebvDgwe6tt97yaajsDRs2dAcPHnTnzp3z3bbhw4e7L774wk8DJwUefvhh//kHH3zgp/Og67Zz506fJkRIflifTp06uaZNm7qPPvrIr++9997rDySkadGihTt//ry7fPmyLyMCy549e3J52rJli59PyLJuu+02P5877rjD/fVg5ufLPHr06JFbXgiWRQCzZX399dd+7JmusG0XW6927dr59frss8/88Avr9uGHH7qTJ09mludy2zS0DBs3bpybj6XNr5Mx615sm4qEaJQ8R6GC4vjx4/45BBWWo366VUiLZuLEiW7AgAH+aM94afrEADvdG2+84fr3759robCD4+WXX65WCyEkP+aFF17I5YsTEuQH5IkHrSZ2PFpg+a1jhCyLYRCbz5kzZ/x7WIs/1LBhw/zzrFmzcnm2ediYtHnllVdy+bX88H3SZJVn5pVeZv42DS3D9Hwsbb6YdS+2TUVCBI9xUll5UMnsqP76668nn5ZHF46dhh3DHuyEaNmypX/mc1qUVHYec+bM8dPbtm3rn0ELhGU///zz7rXXXnOzZ8/OBfIYIfkx6R2OABErZlmg9WwY9ijUJS2GIEHXM53nQ4cO+ef8Ey/pALVkyRL/fNNNN/nnrPIcsk2zErPu1d2mcn0LDpyMQ/Ho2bOn30meffbZKypfCL5H4M1/2NlRxsVGjRrlW7JUeKv0aYzBTZo0yS1fvtx3H+kWEsgJorHK5SfUhQsXklfFZbWsSsoizyHbFCFlKFJbBAdOWhA82Ak4o1msm1yoCwVOPtDNZqdLd9F40CVk8J9WDuNWtCLp9lkrKB/p+YyTBXQlaQ3xXbqQocrlJwbjbmDMsJAsl1UOLS7rmhrG9HD48GH/bChzk99qzyLPMdu0XBmGiFl3keqo8smhQhiI79ixow9gtAT5Li2Jo0ePukuXLrmhQ4e60aNHu3vuucf16dPHDRo0yD344IM+8DH4z2c333yz++abb/yJiKeeesqfUOAEAicitm/f7ocL+E6/fv3891kGaTkRYGNsIcrlB4XWnTQElPS0s2fP+vl0797df2Z54yRGyLoTYMaNG+d3cpbXqFEjn4bfxXKiJgZnie+//36fB+ZHQGRbEFReffVVn8bWi+4rJ044IP74xz/224AWIsvMIs+h2xTlypDx1YceeshPs2Xyfd4zLwJvzLqX26YipWQaOPfu3euP+FRWKuKNN97o/vznP/tKzYMzqa1atfIBls95MG39+vV+Z2vQoIEfCuCsKwH4vffe8+Np7ATsUOSB/FhF58H8+IkLJ4vYwUKVyw9CdzLGXDk727lzZx+IbF4bNmzweSq3LAIQwyAsC7fffrv//OOPP/bfjcE2ID9sA/JC0KLV+Nxzz/npsPV6++233cCBA33aL7/80i1btsxt3rzZp8kiz6HbFOXK8IknnvAncJhmy7Q0nJVn7Dtm3cttU5FSyv6OU+ofO9Mcc9JJRP5f8BiniIh8R4FTRCSSAqeISCSNcYqIRFKLU0QkkgKniEgkBU4RkUgKnCIikRQ4RUQiKXCKiERS4BQRiaTAKSISSYFTRCSSAqeISCQFThGRSAqcIiKRFDhFRCIpcIqIRFLgFBGJpMApIhJJgVNEJJICp4hIJAVOEZFICpwiIpEUOEVEIilwiohEUuAUEYmkwCkiEkmBU0Qk0g3Nmzf/Nnl9lREjRriZM2cm7662du1at2vXLqUpQmmUphjSzJs3L3kndU3JwNmtWzc3duzY5N3VqByHDx9WmiKURmmKIc26deuSd1LXlAycIiJyNY1xiohE0hhnAUqjNMVkmUZjnHWXxjgLUBqlKSbLNBrjrLs0xikiEkljnCIikRQ4RUQiKXCKiERS4BQRiaTAKSISSYFTRCSSAqeISCQFThGRSAqcIiKRFDhFRCIpcIqIRFLgFBGJpMApIhJJgVNEJJICp4hIJAVOEZFICpwiIpEUOEVEIilwiohEUuAUEYmkwCkiEkmBU0QkkgKniEgkBU4RkUgKnCIikRQ4RUQiKXCKiERS4BQRiaTAKSISSYFTRCSSAqeISCQFThGRSAqcIiKRFDhFRCIpcIqIRFLgFBGJpMApIhJJgVNEJJICp4hIJAVOEZFICpwiIpEUOEVEIilwiohEUuAUEYmkwCkiEkmBU0QkkgKniEgkBU4RkUgKnCIikRQ4RUQi3dC8efNvk9dXGTFihJs5c2by7mpr1651u3btUpoilEZpilGabNLMmzcveVdZJQNnt27d3NixY5N3V2PFDh8+rDRFKI3SFKM02aRZt25d8q6ySgZOERG5msY4RUQiaYyzAKVRmmKUpnal0Rin0iRTrqY0SlPM9Z5GY5wiInWExjhFRCIpcIqIRFLgFBGJpMApIhJJgVNEJJICp4hIJAVOEZFICpwiIpFqVeBcvHix27RpU/Lu2qrksmLxV9cnn3wyefcdppFfe5D/LDDf1157LTffF198MflERIqpaODkL5xz5851a9asuWJHHTBgQJJC8NRTT7lHHnnEBzXD38/4by6PEydOJFOrh3Lnv8C33nqr3xb2/2CR2oKYQSPCDu5ZNRiqq2KBkwKYP3++69+/vztw4IDfSbdt2+Z69erlhg8fnqQScGAhgO3YsSOZ4ty+ffv8BQ14nD59OplaPQ8//LB/fvbZZ93s2bP9vJcsWeKnidQG/FedRkRWdT4rFQucTz/9tGvWrJlbvny5mz59ut9Jae1MnTrV77Ty/xYuXOjLKKuWZTG33HKLO3LkiNu6dWsyRaR2WbVqlRs/frzfH2qTilzkg9bmokWLfAuz1GWiaIZ37drVB1eOMgTa/fv3u6VLl16xc0+ePNmNHDnStWnTxr9nvrRm04GGbi5paNGCz/70pz/lLkNlyxoyZIh/D7oELJfhhJCrrrAM1ofl9+zZ00978803/Tzws5/9zLcUbf1x8eLFXIs7vQybV1o6b2nWXZkyZYp/rqpy85kwYYKvtJQz+d69e/cV5UzXCbxfsGCBmzZtmmvfvn3ufWhALpSPQtNmzJjh7r77br8Mw7LIoylXN0LyzLKpexs3bixaD8tt09C6gZD6LN9tO7ZDdet9FirS4uzQoYN/Pnr0qH8up1+/fm7z5s2+AhHcqNyGnXnixIn+NRWVwqRiUumNVdouXbr4z0n31Vdf+cpJJS2G9Eh3kUPQcmOnYgcjUJN3XqcviUUeeBB82rVr5/NHPk16DJPKca2wTAIQj1atWvmHvedBQADlbOVOnggMDLPMmTPHT4PllR2ebv+xY8d8efM+vc2ywEGN7QcrJ3uYkLrB9JA8E0xL1UPY8ottU5SrGyF5ltqnUfJckAWgYtjQ1oILcfDgweRVaS+88ELuaMzJI2s1YsyYMQVbGVQ+TnbQIrAdjLG7dKuH9SnWkuS7LIexxdgj/aFDh9zKlSv9jvX555/7eVgewLrY+oCd9I033vCByPKTTkMAY0e9FljHdN6Qfk/eycewYcP8+1mzZuXyRUuMfBFcmca2t7yeOXPmqtZ8luyg9vLLLxdtyYbUjZg8p+shvRC2l2G6fYZC2xTl6kZInssJ2U9Zbm1KExM3aqOSgdNaQcVQQDHYaYsFrrR0haSypQOnddM4Mudr2bKlf2Yno1WRX+kKLZudiFYBFZ4u14oVK5JPssNO9eijj7p77rknmfKdtm3bJq8qhwqbDhYo1PUhiFCG6W1BEGA6PYj0dKTrwrXoSm3ZssVv1+eff96Py3766afuz3/+sw9KJqRupJXLc3odCbJpWW3T2DwXErKf1rY0dV3JwEnFyd9BqoKCBN2ZLFDwhTZMbBcb6aP/tTpRQreLn/xs377dXbp0yU/LukVW39Cd5UBmCJCMOdJCu+uuu1yPHj38GDDvf/KTnySpsq0bpWS5Taub59D9tLalqcsqMsZJIdJ6oeVYaowxBMGNlgeVihZk+mFdbMbjqMR0dcph5+NB5eU7jDlliW4UrQrGubL8yc+1DrxsL5ZhY57o1KmTf7YDYZYIlIbWnLXE0ti+lB3dQLq2tNJIZ9s5pG5kIcttWqk8S7YaNmnSpCK/BTp16pQbOHCg69u3rx8/o9UwaNAgH6g6d+7sj9y0Hlq3bu0rpCENFcumcXQfOnSoGz16tO8m9enTx6d58MEHc92ds2fP+mXRmvzBD36QS8P8169f79PkL4uKyzzvvfde9+67717R2imGfDNfxm7pSj722GP+9V/+8pfcdNaL+d58883um2++cb179/Y/cD937pxr0aKFu+2223waDigPPfSQ/x4BirzxGe9Jlx4fpgw7duzoAwYtL9blwoULwSffDN/D6tWr/XMagez+++/3J0jID9uJZRFQX331VR88xo0bl8tro0aNfDnze7uTJ08mcwnDOjLv++67zx9cmS/1hRNXVj4MqbCNyQ/pyTtl+fXXX+eGHsrVjdA859cNMB+rh40bNy67TZkn3ylVN5geUp+vZ+n9gvL/9ttv/fbjfVXqWlYq9jtOusD8BIMzlE2bNvVBjQc7R0iQMhyJGai3s7w2H+ZpWBYnhmhFcobS0nz/+99PUlyNozs/PCdg/OM//mMytfpobfPzKtbTWkp0OdnotKzs5ykEBMuntSbtfXqMF7/+9a9zLWRbr9DxsFB0jTkRA5ZBpWXb/fKXv/TTyFM6r7Yt7BcUMfjpDevDPB944AH31ltv+enp8mEcmp4By+DBdqUOsJ1NubqRVZ5Dt2mIkPp8PUvvF6B87X1V6lpWdLM2EZFIFWtxiojUFwqcIiKRFDhFRCIpcIqIRFLgFBGJpMApIhKpVgVO/jutH/3Wf/yYvTrbmR+y63YfUpPU4pQ6hX9L8aNz3e7j+sAP3vmDgN1uh2f+5sr0mqTAKXWKbvdx/SA4Llu2zP+jimuecpDkv/38gyzLf/dVhQKn1Cm63cf1g79Bc9X8X/ziF76XwUGSy/8xnWsb1KSK/uWSsSn+Y2r/vaYACt3OotStM0JuQ8F8+G6pWx9wNOO/8xzNwP+wueYi+eOIZrjIANOsa0C62NsaFMoPO/8777yTu55kyHqB8cFyt48olcZuD0Jl5P/tVEiWwzbgQrz839quTcmFPfgO606eqnLrjPxy5jtc2CK/nEOVuoYosshziEL5KDQtZHuVq2NZ5bm+oJyJE1WpP1mp2NWRCJrspFxRhqvCcKEELpLA1WAaNGjgdu7cmbsqDRc4+Oijj/wVcrhaEYWUvvBDw4YN/dVluBoNf/TnLplffPFF7gpCzIcrqJSaz69+9Ss/jYD6n//5n/5aoVws46abbspdFYed8PHHH/c74Pvvv+9vs8CVcAYPHpybTwjLD8sgP5999pm/aAbL//DDD/0VXkLWi6BHV5XPP/jgAz+dB2N8lF9IGsqcK8twwCI/5ON//ud//M5J94e0XEGKdWcHtXXnKkRclYmDnl1NiasAXb582d1xxx3urwdgd/78ef99WgNW1vnlTNr8ci7HrmpEvvnu9773vdwVctJXyckqzyHYpkhfWSp/Wsj2CqljWeW5vpg0aZK/Elihq3pVSsVuncERFSG3syh16wym22cg4BS6ZQGK3fqA71Dh2JnTrQPmk8aOUKh1EHNbg7RXXnkll0ebD5fYs3Uqt14EOZS6fUS5NFxyDxzAWAYt3/RVy+1K51ncOiO0nMuxqxqlpd8TiMiPbvdRXMi+TDlWKo2tQywONNQr5lGTKnbrDCoRO1B+BcoPdrBKj/xbZ1BoobcsSM/HAgJo5YJbQaTt3bv3iua/da+sq5RWlcu4pdeVExrsHLS8ELJeIbePKJfGyv/OO+/0Lc4NGzb4nZYdC7ZN2SHZXukyjL11hs2zXDmXw06WDhZIB2KTRZ6zFLK9YutYVfOc1S0vskpTFRxIuK4pZVnTJwQrcuuMLDGmU8nbULCRC1WC0NsahApZL3a4crePCEljGMrYs2ePr4zGWqQSj7FrutwmdFtUoo6F7suVTBODoPnMM884ht1++tOfJlNrTsXOqnOyg0BAAVQVLRiO0IyNVeenKBwRkX8PJCp2Gkc2WgxZ3dbAWmCgy2Fi1ovl8hldIVqKtFT4brpcy6WhVcbZabYHFZz1tGEMa5GShs+rc+uM0HLOShZ5jkGgNPQYrPWYVm5bZF3H6hvKlWEKa7UTNGtDuVTsrLodMahsdgYb7MA2HmJjNuluHIVmZ2DtzDM7CAPijNNx9AatJ+5ZvXDhwrLzgaXhaM9wADsYJ07YUJaGgEbeaEVwdtbyzMkJAlwoWxYbnu4afvjDH/qymDp1qn8fsl6sA8u2Fillx5XQMWrUKP8ckob82E5Py4fx37/7u7/zy7KxNjvRQiW1E0kMmZBHuoiUDe8pN9bNtumqVauuaG2ElHMM5odC3dSs8hzCxszT6wXWLWZ7latjWea5LrJzHJQP5ZpG2XOAqQkVa3HSkom9nUU+KsryjG5ZwC0gyAsbhXwcP37c72xpbJQsb2tAXq27xj2COGnAOoWuFzse37V8FLp9REgaxv1o9TB/sCOm34NuZha3zggp56xklecQde12H3WVlQMHeisbe1A2NUW3zkixo1tVWkKlWKsr6/mKSM3QP4cStBRoodCdFhEp5bptcfJbOYIlbOyJ7gBdPbp8WVKLU6R+uW5bnARNGythnJUxJsaasg6aIlL/aIxTRCSSxjhFRCIpcIqIRFLgFBGJVLExTjuzXAj/0425Wor9m6I2/Hui0MUZ+GH0ihUrrrigCZcY44fSnJSyf4nkX9ezVBr751Mx9u+YGPwzhTP9LMv+yWLy14ufafGj/PRfQS0Nz8yLf4fx1zjYNi213e1XBpaGi9byjxvY+nLCLubfIeXKuVB+Cm0vqR3YjlzPlRO4vAbba86cOVfsO5VW8RYnO1T+g4KIYf+mqC3/nmAD2roQRPg9KH8vtf9MszPbv0lIw87MP0C4sIcpl4YysmXwbxgQLG3aH//4Rz8tBv9iYh78DIuDUT5bL9aJf3BwNScCWT7777lddSqNfBXLc75+/folr6ompJyN5YF85W8vqT3YdmxD/tbK9mI/YP+3f4PVlIpdyJj/XnOR4n/4h3/wl9tKP7goawwuXktl/8Mf/hD93axxZSEuqspfJVkXgsyNN97oL6D71Vdf+asd0Rr78ssv/f+o3333XX+hYC5Om76Ic7k0XMPSyqtRo0a+DLgwMK06ptmFcUPROhw7dqz/+RWB74Ybbsi1IJFeL6az/Pvuu8+vl11cmTR8xvcJkFy0lwvx/u3f/q3/3PJVLM+GukHwpn4QWFluVbZxSDnn10PScMWdoUOH+osEp8tAat5//dd/+e30m9/8xj/T++C6q1xtKvRC2NdCrRrjpBvFbV/5cbrd1Y5pdiUZum9Msy6r7dT2SGMe7Oz2GS0la+rDppOG+dvtZu19dXB0BNfapCVHUOD/2emuBcMMoAKEpMmatQ7pftMys1ZjKf/2b//mn9M/5OcCFnTjCcJ0gWN7D4Z5EDTtZmyxqlOGNhRQ6JquUrMYiksPobAP0/uxHkxNqXjgJPilH/ndIy42QZeNK6FQOOyMtCBg3VV2MPC5dbl4GK6SQ7cSTCcg8s+gdJfN5sOGsJYS6Xhvy6sqrm4ELuRhr/MDio3N8q+lkDRZ44LJrD9B5pNPPvHrXa6rSn5In58fWpuMK/KZHTSqgvmwnaqiJspQKoe6SWOIfZiL0TBuXZMqdusMk3+Cg4puldsUu+UFLQMeBFwCKoGu0IkDumPsxHaJNFyL2xEYrmrEvMDlwLhkHCcmXn/9db/ccrgaeyURJFlHO9hQHpSN3cajlPQVlAzXkmRskWGJ6uDEE/MJKbN81SlDuzYqV24KEbJfUK+VpjDSxMQNgqbdyJD9+uOPP/ava1LFbp1hQv6vnd557fqEMeyCsgTWfFnejsAQiNIHBDYuR0aeeZQTkiZLjOeBVpgFfAI9Y4rl0B0mbRqB17YrQaU6GDZg8D+25RpbhrbelAEHZjvQhQjZL5SmdJoYxAPqF/sZjSIOrlyftCr7albq3K0zQBe4HDZOoY2X9S0vQJfXNqK1kDlJAQsABIN065hKAA4MIWmyxF0UYS15w/JLIT8clGIrfoy3337b/6TJLv4bKrYM7UBHwGR9+DlSaF0P3S+UJlscHOmVcLdPAikt0WuxnBB18gfwdpY1/5YMhhMNtJ5q4nYE1srlFqZgmeycnI22nRjWHWV8MSRNlhhHJFhQ+exhFwBO39IjH7+nw7UMnLRe2UaxY52xZWjrze9Xp0+ffsUJCKndasN4dY2fHOIR270jILKT0GTnJyg2Hzsb/u///u++S7ls2TLfArTPSQuWx3u73QE7EO/LnRwJwQ5MC5TWnM2PE13szAQnlkOeaPEQ4O0H5SFpskAZUTb5wc+uCmWtUdjYLQ9+bcA68b2Y/BC4+D5lDMrc5lkMZUEeY1WqDKVy2IbpfZhfv9CrYB+rqdYmKh44qcj5j3JdxHy0SF566SX/+zt2SJuPIXhR2DV1OwK7jYK1OhkI518xYDm0pvhFQPpufSFpsjB48GD/XKiFRWVM38qEIEReePCbVPJH6ywGv5Dg+zYsQJnbPIsJHWvMV6kylMqh3rEdrc6wDzMEV9M/gNdl5UREItXJMU4RkZqkwCkiEkmBU0QkkgKniEgkBU4RkUgKnCIikep04OSH7Fy8VkSkkurkrTMM1+zkHyb82J0fvacRVPmhe224vYaI1C8Vb3ESJPMfVf3vM4GT7xa6cIf9O6i23F5DROqPirc47T/L1xr/ayVwFmqNiohUR60a4+QP/LQi0xfbePHFF/0Vh+wCHnTBeZ9+pBEwmUbQBBdULZZWRGq3kJhQEyp+szZunsWNuOzBFcVPnjzp03BjpuHDh7vu3bu71atX+xM/f//3f+8v3PDb3/7Wp2ncuLFr2LChv7Tc5cuX/TzTN21q0aKFO3/+fO4zLvKwZ88en95uICYidUNITKgJJbvqtO6yugR+sZND+V1prgfJPX8IeFwVhSscFbsij3XHC3X/q9tVD1l3xleVpjClUZpiSBNzMjgmJlRKycBJ85i7FxZDAYUGpZgxToIdlyHj8nEUWLGLD1/LwBmy7twiQGkKUxqlKYY0sftkaEyolFp5cogLDpOuOoGTJj0XOq5q4BSR2iM0JlRKrfsBPM1yCojBXy6kW9ULlpa7vYaI1A1ZxYQs1fjJIR6c0CHQ0T2mFXno0CH385//3P21NewHgnm2W89yK4aHHnrIf4/bMKTnafPB2bNn3ejRo/2gMvcf4krkpOGk0dGjR30aEandQmJCTah44CSI5T84C87Z7l/96lf+n0D/8i//4s+0UzD33XefLyhu60DAe+KJJ/xYB99jfsifD7gnEbfW6Ny5s/8xvKXZsGGDAqdIHRESE2pCxcY4RUTqC10dSUQkkgKniEgkBU4RkUgKnCIikRQ4RUQiKXCKiERS4BQRiaTAKSISSYFTRCSSAqeISKRqX8iYa+spTWFKozTFKE02aapyd9wsVPtCxnXxIqpKozSFKE3dS1NT19rVRT5ERCJpjFNEJJLGOAtQGqUpRmlqVxqNcSpNMuVqSqM0xVzvaTTGKSJSR2iMU0QkkgKniEgkBU4RkUgKnCIikRQ4RUQiKXCKiERS4BQRiaTAKSISSYFTRCSSAqeISCQFThGRSAqcIiKRFDhFRCIpcIqIRFLgFBGJpMApIhJJgVNEJJICp4hIJAVOEZFICpwiIpEUOEVEIilwiohEUuAUEYmkwCkiEkmBU0QkkgKniEgkBU4RkUgKnCIikRQ4RUQiKXCKiERS4BQRiaTAKSISSYFTRCSSAqeISCQFThGRSAqcIiKRFDhFRCIpcIqIRFLgFBGJpMApIhJJgVNEJJICp4hIJAVOEZFICpwiIpEUOEVEIilwiohEUuAUEYmkwCkiEkmBU0QkkgKniEgkBU4RkUgKnCIikRQ4RUQiKXCKiERS4BQRiaTAKSISSYFTRCSSAqeISCQFThGRSAqcIiKRFDhFRCIpcIqIRFLgFJGKO378ePKqblLgFBGJpMApIhJJgbMeGzFihHvyySeTdyKSlRuaN2/+bfK6oMWLF7uuXbsm7660du1aN2/evORdeezIvXr1cqtWrXL79u1LpkqMmDJcs2aNa9asmZs7d65bt25dMlWk5jHG2bZt2+Rd3RPc4iRI5j927dqVfBqGHX7kyJGuQ4cOyRSJFVOGBE620Y4dO5IpItXXrVu35NX1Kzhw0rLMf6gVU7stXLjQTZ8+3Z04cSKZIlJ9Tz/9tHvttdfc5MmTXZs2bZKp15fgrvqQIUOSKVcjDV3CjRs3ukceecS/3r9/v1u6dKnbunWrmzFjhm8lFZOeNxuDtLZBtm3b5ubPn5/b+Tdt2uSfeb9gwQI3bdo01759+9x7lhdqwoQJbvz48X5ZFy9edLt3775iWYXW68iRI+6dd95xK1eu9GmQRZ45ii9atMinIy8HDhzwrXo7OIWWIV35mTNn+tem0Laryrqnt2kM8n733Xf7dTYsh+WbcvkJEbK9QutPSH4oa7YJvQDw2Z/+9CffqDDl6gZCyickTaUwbv7AAw9cUTZvv/12VL2o6131hk2aNJmdvC5ozJgxrnXr1u62225zgwYNyj1Onz7tTp48mUvTqVMn17RpU/fRRx+5U6dOuXvvvdcH3Lfeesu1aNHCnT9/3l2+fNnPi8qzZ88ed/DgQf/YsmWLnw+V9fHHH/cb4/3333fHjh1zvXv3doMHD/bzAflgPnfccYf7a9D382UePXr0yC0vBMtip7Flff31165v375+J1i9erVPY+vVrl07v16fffaZ69Kli1+3Dz/80K9/VnmmEjZs2NBPP3funO+KDx8+3H3xxRd+WmgZNm7cODcfS0uwS4tZ92LbNBQ72cMPP+zX6YMPPsjllyGEnTt3+jQh+QkRsr1CtkVIfuwAdfPNN/uyZ7y5VatWrk+fPq5BgwZ+3ULqRkj5hKSppO3bt7s33njD183vfe97rmfPnv7gMGzYMF//9u7dm6Qs7uc//7k/gNRVjZLnsvJbO2y0/JMTL7zwQm4aJyT69+/vX9Nq4sFRk8rJUb9QN5+Kn38U5Yg9ceJEN2DAAH9E42hu8zlz5kzu6G4t41BsZMyaNSuXZ5sHrb/0ur3yyiu5/Fp++D5pssoz80ovk0BK5aQMrfxCyjA9H0ubL2bdi23TUAQuvPzyy0VbJDH5CVFqe4Vsi5D82P7w7LPPXrFeBFRbdkjdCCmfkDTlFOqJpNk5i3JprLxgdZIy+ad/+iffGqbs0r2x+ip4jJPuXvpRbKc1VMpYFDwBg6BgDyoZWrZs6Z/T2NBmypQpBbukxbAT0PVM5/nQoUP+Of/ES3pdlyxZ4p9vuukm/5xVnpkHLQt2UB5z5szx069FdyZm3au7TWmN0eJ6/vnn/bjY7NmzfUssLSY/IUptr7Ri2yIkPwQz0uQHsvSyQ+pGSPmEpCnn8OHDuZO6hR6URUgaw3pxECA/DDHdeuutvheU37upryr6O84LFy4kr4pj49CyyX/U5jPDWeSZ8bVRo0b5sR92UttR84WUYW1C62PSpElu+fLlvqtKl5huMDvc9aBc3QgpnyzKkIMArcViDwJ+SBoQuOkNcRBgKId8kT9aq1VtEdc1FQ2cjMuAMahCGMjnSE6lYiOlH3R5skRrwbpehvExcORNo5tj8o/0WeSZ+dM64WhNpaSSWkspX7kyDBGz7lmgHFgfdiy6rbS8WF+6q8g6P6W2V4iQ/HDyjjS2DoWE1o1y5YOQNJVCL4jWJQcA8kK+Qut6fRF8Vp2mej6OplQCS5PuKjOOxDhQehrN+2XLlvnXDDBfunTJv2bgnCOVjcPQLeFMnXUNGYAmoPA5A/RUYpbHxiNNVX5Qzw7FUZsNzplQAhHzZqeh2wZbL3aATz/91E/74Q9/6M/WTp061S8zizyzg9LdYdmcNOCEA+Nj4Ii+efNm/9MilCtDuk+kgS3Ttp1tr5h1L7dNy+E7lIXl85ZbbvEnE0ALGyH5CVFue9HNDqk/IfkhYD3zzDN+3jYfsH7UB5SrGwgpn5A0dc11c1adI2f+gzOSjL9YmvT4BmfeSZOeRgXi7Gznzp19RbT5bNiwwR09etS3pjhTx9lJzmLa50xbv369GzdunN9xWRZuv/12//nHH3+ca4mF4swf+aHbQ14IVrQMnnvuOT8dtl781GLgwIE+7ZdffukDF8EMWeSZs72ciWVn4Ex6x44d3XvvvefHwdjJu3fvnivHcmX4xBNP+BM4TLNlWhrbXjHrXm6blsN87Hs8KCdaa5zoIL8IyU+IctsrtP6E5Ie8M5zCQYrtw4N53Xjjjb4bi3J1AyHlE5KmrqnrZ9XLtjivZ4VaXVJ7aXvVHdfNXy5FROQ7CpwiIpEUOEVEImmMU0QkklqcIiKRFDhFRCIpcIqIRFLgFBGJpMApIhJJgVNEJJICp4hIJAVOEZFICpwiIpEUOEVEIilwiohEUuAUEYmkwCkiEkmBU0QkkgKniEgkBU4RkUgKnCIikRQ4RUQiKXCKiERS4BQRiaTAKSISSYFTRCSSAqeISCQFThGRSAqcIiJRnPs/eT3YNb54SCgAAAAASUVORK5CYII=;" vertex="1" parent="1">
          <mxGeometry x="120" y="80" width="334" height="428" as="geometry" />
        </mxCell>
        <mxCell id="sP2bypRe-vGym_zLNqmd-2" value="" style="shape=image;verticalLabelPosition=bottom;labelBackgroundColor=default;verticalAlign=top;aspect=fixed;imageAspect=0;image=data:image/png,iVBORw0KGgoAAAANSUhEUgAAAUwAAAJBCAYAAAAtGIwcAAAAAXNSR0IArs4c6QAAAARnQU1BAACxjwv8YQUAAAAJcEhZcwAADsMAAA7DAcdvqGQAAGKASURBVHhe7b17sBRVvue72GI0jxbkpQGKtCDQiEC3MDwcQmE4fXi0wHgFNKaHRxBnggNNgCF9D+gVg2gIgT/gAoEo0y0HofseXjMcaQ+gDc0jmgPSoAcUaJ4jgugJXmoP4DQb9vXzI1eRu6jatWrv2rtqw/eDaVau/FXmyvX4rt/6Ze6sGpv+8IeSa9euu2vXrrlFC/5ft3X7H50QQohbKYrWQgghMiDBFEKIQCSYQggRiARTCCECkWAKIUQgEkwhhAhEgimEEIFIMIUQIhAJphBCBCLBFEKIQLL+08h+/fq5KVOmRFu3smHDBrdv3z7ZpEE2skmHbDLbzJ49O9rKD1kLZrt27dygQYOirVvhok+ePCmbNMhGNumQTWabjRs3Rlv5QS/fEEKIQIquXy9x169fd9e/E0whhBDpqfH+ps3feZjX3LXiYvfm6wsUw0yDbGSTDtlUnU3eY5jZCqZimLJJhWxkk45c2uQ9hpmtYAohxJ2KnsMUQohAJJhCCBGIBFMIIQKRYAohRCASTCGECESCKYQQgUgwhRAiEAmmEEIEIsGsIiZPnuy2bt0abWUPf5I6fvz4aKv85Oo4dxKUGXXnl8WLF0d7qg+q99yQ17/0SSUg/PnTihUr3M6dO6MUZxX91FNPuSZNmrjLly+7/fv3uzlz5rizZ89GFmXbIFb9+/ePLG/l8OHDbsyYMdFW5eDz0KtXryglO9avX+/q1KnjZs2aVaE/D6voceh4nTp1cuvWrXOHDh2KUiuHqjxXWcT/HLhLly7uwoULld5eck2u2s+dTt49TASNP6pnQUBbt27tpk6dao0UEMIhQ4bYZ2wQwu7du7u5c+daGmSyQYT9OXbt2mVpiKRP++CDDyytkKHBcx179+6NUspHRY+DgCH8LVq0iFIqj6o8V1kg1rz0gQWxrI7kqv3c6RTZq92iJR/QAH1jnDZtmluzZo2NhH369LH9AwYMMFEdN26c2fA2E0SuefPmbvTo0UE2jKj+HN6rPXHiRCJtyZIlllbILFy40E2cOLGUV10ecnUcUb1QveeGGhvf/31iSv7f31hY5VPy5Okw0zAveIyI/jPC5sH7fOONN8xb5BiZbNjviR8/bh+KPy4w9T969KgdKz7NISwwadIk83KBPF65ciUxJfd5IG8dO3Y0GwYK7yXzXbwabxcneUpPPI0BZsuWLfZ9PlOmS5cuTYQ1Qo4DhA0ee+wxG2g8dLChQ4dmDGv44/kBie/h4TOIcTy/TZ4ylWHouWDYsGGWv3ThmpD8ZIOPX6abkmfKT3LboA1cvHgx0TYgxCaEXLUfcZOCu+lTr149W1+6dCnxGeGM4+NZDRo0CLLJNXRuFjpDs2bNrFHSOD0zZsywxu6n/U2bNrXYVzLkjYZJI2X6uW3bNvvs42W87sqfi2OlAwHo1q2bfZ/O1bZtWxMGT8hxCGt4kfK2fgHKN/59zpNsA96GTj948GD3+eefm2ixHc+T/16qMgw9F+Lkj0k6wku5U/4ef5xM+ckFIflJbhu0geS2EWITQq7aj7hJzWgdTKpRKw6Vk43n1rBhQ/MooHbt2q5r1642Mq9cuTIx5S6Lhx9+OPpUNSDEXoyBjrd69Wpr4HhIbNPgaKBxLwSbZAgLrFq1yhrnmTNnTCjinlX8XJQRx03HvHnzErYE9smPJ+Q4xI5h0aJFKT0Lro3Ffx/RiXvVHure2+AV+baAJ+PPG88PJJdh6Ll82ObVV19NHM+fBy+WtJD85IpM+Tl37px9LqttZNN+MhEv53T17imr/WQi15pQyGTtYcZHrVRLsqeXCRoIIuGnG3iW06dPtymMn8aURYhNLiG/eGN0BBbvPeBFQufOnW2NGMY5cOBA9Kly8I0dEIZs2bFjhw1UM2fOdMuXL7d4Mh5TRYi3BTp/fMpZVhmG4oUlfu2+3FPdKEqXn1yRKT8hbaM6tp9ca0Ihk7VgUrCMFumWVJ5AWdDAaLgsTAfoTF999ZXtw+sCpqtxsAEqNsQmlxD34ibTF198YY06uWFXV/B0R44c6ZYtW2bT1vbt25vni3jGYUCrKKFlmItzicon15pQyBRUDNMH6Om4QEHj9RC/8QIIfqp+5MiRIJtcwdSDeA9xRzwwGkPyHXZGWyAuFwcBKnTw1rkeplfcuKA+uN4ePXpEFs4dO3bM1snXF0pIGXoynYvBFq+O6a6nZcuWtvb1UBmkm9pmyk9I26jO7edOIOsYZmWC+D3zzDMWP/ExKALRTNeJre3Zs8cC4Ow/depUoqOF2OQC35iJVX3zzTd2w2ngwIF2HmKxTDN5fIOOg8c7f/5884B9p8kWRN8PAv4YxKKAaU7oyB1yHLaJIXM3HyhD7uAzGMVjmjzHRxp3VB966KGE/fbt2139+vXtuv05mDWwHX/wPLQMoaxzkafNmzebQP3yl7+0ekdk4tNixDlTfrIFr5hzEErAM6ac3nnnnaD8QKa2gV2htR9xk4K7S7527Vpbey8TD4RHbgBRpBMzdX/xxRctDUJscgGNmSkrHdt7YTyOwbOkNEz/WNArr7xiDZJGT37oZHSgbOHOJd9noeOB3+bYoYQch46PoPh0ypC7vMST4+CFLliwwJ0/f76UPfjr9edg0GI7Hk8MLUMo61xAGIFBEkjnxhX1TvlDSH6y5fXXX7e65Zgcq1WrVjZQQKb8QEjbKLT2I26S1+cwhRDOPEkEjEEhHSE2ovIpOA9TiDsJvGo8UUIS6QixEVWDPEwhqpB4XNHHifljBabyTOkhxEbkB3mYQlQhCKGPIxL/JE7Mg+JxIQyxEflBHqYQQgRSVFJS4kquX3eshRBCpEdTciGECESCKYQQgUgwhRAiEAmmEEIEIsEUQohAamx47/0SHini0aJfvfl6xseKQl4Wyt/ByiY1spFNOmST2Yb3RuSTrAWTtwj5n1BIBRfNG2lkkxrZyCYdsslsk+83LGUtmEIIcaeiGKYQQgSiGOZ3yEY26ZBNYdkohpkG2cgmHbK5c20UwxRCiGpC0cXz59yF75aLF85HSUIIIVJRdG/DRu7eBg1tEUIIkR7dJRdCiEAkmEIIEYgEUwghApFgCiFEIBJMIYQIRIIphBCBVEvBnDx5stu6dWu0lZoQGyGEyIaCEMxp06aZuK1fvz5KEULcifCn1+PHj3fLly83TVi8eHG0pzAoCMFs3769O3z4sKtTp4693EMIcWfC35IPGTLEXbhwIUopLIom/8P/7V5++SX3yv/zcpRUtfTo0cM1adLEbd682V2+fNl179492iOEuNNYt26dGzp0qJs4cWKUUljUWL/xvZLiq1fd9evX3a8XL6ryl2/gfjOiUEiTJk1yrVq1ss8exJR0L6S46VeuXHH9+/d3vXr1srQQm1CIfT722GOuefPmUYpzZ8+eLZWn0aNH27E5L+zatcvNmTPH7MDHTtmeO3euGzdunB3Pb8PMmTPNjnCEh8EjOb2i59q5c6ftz4Sf+owZM8bWkCqtKsonNM/i9oZ2wswz3v7yTd6n5B06dLBCobMcOXLEOhlxDM+MGTNMCLHhfXhNmzZ1Xbp0ifbeIMQmBMSbjg4cJ754hg0b5kaMGGGfSadSO3bsmBBCIJ28cC2DBw92n3/+udmxjTggCKdOnbJQRJy+ffva+r333rN1Ls6VS6qqfIQoVGpG62BCXiAc+pJPOkjbtm0THQ4hobP16dPHHTp0KLGfzhUfZVavXh19unmMsmxCad26ta0XLVqU1ssZOHBgSo+KfOMh8j2uH0+MfF28eDFRHnhspMEHH3xgnjXl6d/xh4AipP7cuTpXrqjK8smEXmRdvWx8HVd3apZ8NxUvKSmx92GGwEs+KYB0UHih9O7d29YNGjSwDgTEMX3H7Ny5s61PnDhha8+BAwcSU+0Qm1B27Nhh52ZajHAdP37cHTx40K1atSqycImpKB5RMvXr148+3SReHnFBX7lypQkmeUQwfSx3zZo1kUXuzpUrqrJ8MhHSDmVTODa3CzX+Zf2GkuLiYsfyj79eXKUxzFmzZqW9yYOQeC+CyoiPUMT32B9qkw2IFl5SmzZtLJ7KNuIwfPhw248Q0ABSNZC9e/eadwUMAExfucZ0b4meP3++CdCAAQMS+R07dqx515DLc2UiVbySRzsYwOJpVVk+4s6GtpQ8c8w3eY1hEtuic3lhY2G6B8TCGLmgWbNmtvbEY38hNtlAh16yZImJMNNKKg2vCQ8QEAdEjs5PR48vXgxC4dp5lIprJb9se7GEXJ4rBPLiQQi9txinKstHiEIjbx4mHYyp3bJly6wDxqETcmeVTunjWojJmTNnXMuWLV3Dhg2tQ3vvMcQmBLye2rVr2x12IFSAqANeIHiPFs9r//79FoMDvoeXyP5OnTpZHsgT14ENj0vExdDDw/rnz5830Ukui1yfqyy8tx8vQ6Act23b5hYuXJiX8hF3FsS76bfADIRBds+ePbZdCG3krp/97L9O45Eiln/7cK/79ORn0a7K5Wc/+5l5Im+++aY7d+5clHoDxPSBBx6wGzfcHKFj0cmw/+STT9xnn31mn5cuXWr2ITYhMNXs2bOnfY8FsTh69Kh5vadPnzabY8eOuS+//NL2cSfe25K2adMm9+yzz1pFN27c2OwffPBB20+e+G4yPCWAd4nA/OIXv4hSb5Drc5UFQunLkLJ/++237WmFhx56yD366KNWjvkoH3Fn8fd///c2cNMmoG7duok2VAhtJK8xTCGEqE4U+R9A04+gCSFE2RQ1bNTYNWjYyBYhhBDpqZavdxNCiHwgwRRCiEAkmEIIEYgEUwghAqn2gsmD0Dzo7hf/J35CCJFr8iqYcaFj4W+XedI/G/wf/rPk4k/vEGD+oiX+ijkhRNXAX/nwV2f8BRyawJq/EPN//ZNvivxf+bDkA0QOsaNwatWqZa8Bo8BC4U+leOkGSy5ea89fuvCXKC1atIhShBBVAaLIX5jxlz78WS26wLsJ+PPmn//855FVfsn7lByRQ+wYRXiZA3+iR4Hh6Qkh7hxwnni94UsvvWTvI0AXeFMR6eV9mU6uqfG7d/8l8aeRby/5VZX+aSReZfLrm5gKv/HGG4mXbwDTdLw+75azL/6TB55UryiLU9ZxmIazLx3xl3iE5icTnFM/h3GDVGlVUT6heRb5w79cJ5sX6VQWBXfThyk2jZk34UDITx6EkOk4eLakI+BAx2PbL55c5Uc/h1E2+jkM4eFFLr5f5pu8/kRFOuKxyJCfPAgh03H8OxvxahjN6FRsJ5Or/Pi3sejnMFJTleWTiZA2z4Arm9Rg48s9WxgUGdw4RiGQtWBWxevoeZEtrzsDPx1DwJJJ9ZMH6Si04+jnMMpGP4eRmupqUx5op6NGjbL6T35nbr4ouBgmHZn3YFLI/DYxNnxOVSHxnzyAVHEwT+hx/M/+pvvphGzykwmuFS9JP4ehn8MQpUEsp06dai/XfvHFF7PqV5VJwcUw+X1xoCMAHYSOTgegsceXVIWYbpoVehz/gtLkn7zwZJufssBeP4dxQxi9txinKstHFAa0BQY4P7MoJLGEvHuYFIZ/BT1v6KbA6Mx4l+DjR+l+8iCO95zwWvkVSW4cvfPOOxbLCj0O5+dZMNi9e3fi5xi2b9+e1XEyQaOo6p970M9h6OcwCh1mQtQZdUpbiEN7YTDMJ3f9l//ys8RPVOz76MMq+4kKID4RfwU9N3t+//vfu1/+8peRReafPIjDT+vSMfCgsPne975ncS+OEXocKgpReeSRR6zivN3mzZvtZxiyyU9ZMNXUz2Ho5zBEaZ555hmrr7vvvjtRn375y1/+YrHtfJJXD1MIIaoT1f7lG0IIUVVIMIUQIhAJphBCBFJUUlJiN3xKvvsnhBAiPfIwhRAiEAmmEEIEIsEUQohAJJhCCBGIBFMIIQKRYAohRCASTCGECESCKYQQgUgwhRAiEAmmEEIEIsEUQohAJJhCCBGIBFMIIQIpsjcVRW8sEkIIkR55mEIIEYgEUwghApFgCiFEIBJMIYQIRIIphBCBSDCFECIQCaYQQgQiwRRCiEBq/PM760qKi4td8bVi95ulS9zW7X+MdlU+ixcvdm3bto22SrNhwwY3e/Zst3Xr1ijlBqdOnXJbtmxxS5YsiVLKPk6vXr3c5MmTXf/+/aOUWzl8+LAbM2ZMtFU2yfmBffv2uRUrVridO3dGKc6NHz/ePfXUU65Jkybu8uXLbv/+/W7OnDnu7NmzkUXZNrnMs2fatGlWHpxrwIABUeoNQsrZ27DmWD169HAzZ860NF9fmeoCvM2aNWvcwoULLc1f76xZs9zGjRstLRPkI7kc+vXr56ZMmVLqOBy7S5cuVs5AfZFfv7887RBS1buoGNTRpEmTXKtWrUrV14wZM0r1nXxREB4mjTJ5oZA8FBRpNNpatWq5ESNGWIfwfPDBB7Z/165dtk0n8scB30HS2fD9bPD5YSFPrVu3dlOnTnXt2rWz/QjhkCFD7DM2CGH37t3d3LlzLQ0y2eQ6z9C+fXs7Rp06dUxYkslUzh6OA507d7Z1nEx1Eadbt27Rp8pj9OjRJsTffvttIl/U14QJExId0uPzGV9StUOWVPUuKg7tn35w5syZRPl36tTJvfLKK5FFfqkZrfMKI3hZXLhwoZTN/PnzrVDp9HgJ3gtim/QTJ06UssfGexPpbLIhOT90SsSlT58+7tChQ+a90bnGjRtna/AeFLbkN8Qml3nGG0QgVq9e7Zo3b27H88f3ZCpnQCjwFBGJDh06JBq0J1NdePByyQf5qkwPzeftxRdfTJQz5dC4cePEtidT2Waqd1FxXnvtNXfvvfeWahPLly8v1cbySbWMYb755pu29lO8fMNoCHXr1jWhwIPbs2dPqQ65bt06W7dp0ybIJtd4b5BpNt6s9xLLIlU5X7lyxabrgwYNsmls3APLBo6B9zl48OAopXIgv/DII4/YGijzXAhcvN5FbqBe4mLJ4MZsx89Y8k1BCCaeVXzJNMWhUGn0DRo0iFLyS7169Wx96dKlxOdkIfEdlDyH2OQavEEEinI7cuSINcTyljPTbmKv7POiUR44TseOHaOtygGPGJg6Z2pb2bbDeL2L3ELZ48EzRcezJ7ZfCGQ9Jcc7IqieDuIO2U4bk29uICRePNJBIeaLhg0bWoeC2rVru65du9oUc+XKlVbJmXj44YejT1UD4og3SN0AI3joVDJVOe/du9fir7t3745SygfTd44TUmblhVDC119/7UaNGmXtjAURff31103w42Rqh2XVewghfYdz3o422WgCYvnGG2/YZ+rok08+sc+FQM1sX+928uRJK4B0UHjZUp6pNVNaGms+QIDinYtKZSRkndwJUxFik0t69+5tazxF3+EpO25aZCJVOSO4vs4QgYpAeID4VEU81UyQXxby+swzz1jeuQs7fPjwyOIGmdphWfUeQkjfuV1tsoFBirqgvAcOHGiDasuWLbN+KqQyyNrD5GIyeSWVDQXJDYNsKyJXMLX1lcddZG5ufPXVV7btOz4iEL+pQp7h4sWLQTa55PHHH7c1+YyTKZBeFeX8zjvv2KNJPtZYUfw0ORWUNYt/vCrbG05l1XsIoX3ndrXJFgYiZiEPPfSQ1ReeZ2WcJxuq5U0fntOCfAlmHB8jGzlypK3pkHhk8ef+wE87iR+G2OQS4oSUFY3OL4sWLbJ9w4YNs3UqqqKcESw6RnlimQgY0+R4GT766KO2ZhoO8X3J1K9fP/qUPcn1LiqPQrlXAQXxWJGfJsahk3rvKx478iLDfv8IC0JDmi9Y3Hdvn208NVvII9M8vA0/Am7bts2mbogSd8LJF/u5M+zzHGKTC/CimFYni96qVavskSa8Tz5DpnIOoTx1QVn4Z1Kz4eOPP7bvMS0mzhUvQ+85Ur48g3n8+HHzYr0NA5ZvX55M7TBOqnoXFcc/9+tnWY899pjNchgcC6GMC8LDRDiSl/h0kQ7o02n8/IXIxIkTo703HoBmH40XuMHh7auCtWvX2tp7GwgDeQTygPfEYxE8C+gJsckFTz75pK1TTT1phMTyPJnKOYTy1EXoTZNk+CshYmc8dsLxU5XhgQMHbI1X7W0QwenTp1t6HJ/P+FJW2CK53kXFod1RR778qVvquFAeXK/xP9f+c8m1a9fc1eKr7v9btrRK/zRSCCGqE9UyhimEEPlAgimEEIFIMIUQIhAJphBCBCLBFEKIQCSYQggRSMELJm/D9n9VUdlUxrn4+2VeFlwW2PDOP87NwnsoxZ0JbcG3AxbaZCZC2piHh/M5rigfeRdM/kqCp/vXr1+faCQIBn+hcjvAm735axQadSq4Tt700qhRI7t2HtJN/qucsvBlFl9SlR8dipcHs5+ypsx5UD1OWTa+o6VbQjp2MvxNN9/lXMkkH58BJfmtRn4fxwGu2af5v9rxg2CqxeNt4qLjrzddvSXj7VO1W45PuYbgX2TBEvpSj0xtrLpBPcTrmnItT/uqDIrsTUUlN95YVNUglrznjr8KOXr0qDUS/lKDv67o27dvZFW9QQwQQF6Jlgr/Al3+8oSOz18AZfunkXQs38loXPrJjJtU1U9mbN++3dbJeWDA4a+d+NPMEPjzP9oAS+grDDO1seoG7TDTi2HyRV49zBdeeME6y7Jly+xP8GgkeFtjx45NeA3VHf58j2tL5y3wt83xv30uD/6nE1goN/6kkXLlfZcQ/zkMX8YIBn+j60fyTDb87bQ/BwIG/ucnWLIVeTwxxGTz5s32d93+Tynj+OvimoYOHWqigF1cXMkLx2Fw8D+ZEYd8pctzHPLAtabyEEOg/jhG8ivz/Kv1PvzwQ1tXBpnaWHXC121lvu6vIuRNMGngjLyM/MmdLdUf2dNpGUlp+LjnyQ2b/X46yZJqykllMF31Ntj7qVs68LywzWa6g60/h1/Kgo6WS3xj009mhMMx8D4r8pMZXEeyYPq3J3GdQLv3bYL2THvMpm15QtoY7Z9+4PdXByekWbNmti5vPVY2eRPMFi1a2Pr06dO2zgTTJd5qg8DSMfCEPLyijOka4BXROPgD/viUkwaG10SDZj92/KE/f+Afj5ck4ztANtOdeByKTpgMeUGoWXhDkH9LkF/8VLq86CczykdFfzKD60gOL/iwQ3wg8m0DgUUgaJfZimamNgb8NC0eOfuxa9q0qb2FqpDh3ZdQqOGFvP9ExbFjx6JPZTNv3rxEB2ZUjsc4eCszDZJpmwcRRETxRJkuIYxArDA+/eV6Ur2+C/gu50FI4g0+E+TT5xUBRODjcEyfH098m/P574cQfy2bfjKj/DDT4TghZZaK3/3ud3Yd1C9tigGAa2Wg98TbBrCfmQ7Clq4dpiJ+nFRtzJcxYhl/U3nozSdPSH+nveZKExB12m42/a0qydrDjI9sqZZkLyUTocHdeCNL9iKIPdFA/NSDxXuc/iWxeIo0nuRYYapGSgNkKsObwKk8fqw/l9B4/It8yROL32bJpuMA147gsvB9PEsGBhpdSMOr6saZ/JMZTKdTxf9SgQeXDHXKdediyonXF9omk6EcmdrzDlDwYaO4t0RdEeYhrMSCFwgIRS7xIQ9itnH86+5CCenvudQERJ4yLFSyFkyEywfNUy2hnZ1CBh+zqChUCiKXvJTHtUd4/E2Iit6QqQrigkvIgk6Z6icz4mADyT+ZESduk0viP5nhhR4hzCRU5IfBkVBKZcFPZpCP8oYheJExnZ68EvtFROPthzARN9i++OILE7NkQSs0Qvp7rjQhHpJhIPULMIsqr+efS/IWw6SQ6eg0zooWBKKGd4I4UjnxxXtPPLZEQw65C+rFBxHmO2X9jEOhgXcN+smM8oG40WbKG8v0jxfhRXOM+ONETG8R/KVLl5o3jJhkerqA9lce0jkkITfX8gVxbeCa/UDKArTLijz2lSvyJphAw6GjMn3mwWQ/ohCjZNoSym9/+1vzUN5++23zKv1x4lM0ptWci2l23IbP6WC6xHf4ida4kGQCofHH99Mzv51tcD9bED8GIrw3P2ITQyP/iJK/ZhoiA43vsCE2uYABi7pKFj3/Mxne+4T4zTAf5+N72eTH1wWiDP4nM1jSQVmkmvqHgODSZojHcoz440RexNhHO2BwwOOkjLnW5DaPFwpM3ckvdeIH/ExtLO6Q0J9IL5SHv9NBG4gPon4BrqUQfjUyr4JJ48JrYBrpf2aAhcZDowsFkaAx4UXGp3kc08O5iOvR4Rj5vU38JxqSwdPg0Q8a/s9//vMoNTP+ZxpYvIfgtzNNO3OBfjLjJlX5kxke4qC+3v3jRICI8cwx7ZubJNykZD83srhW/4cDHn47nfbq80zZ+Jh8SBvjZx34PtukI8A8OibKT43/8T/XlhRfK3bFxcXun5a/rZ+oEEKINOTVwxRCiOqEBFMIIQKRYAohRCBF169fd7Zcux4lCSGESIU8TCGECESCKYQQgUgwhRAiEAmmEEIEIsEUQohAJJhCCBGIBFMIIQKRYAohRCASTCGECESCKYQQgUgwhRAikKKvLl5wX134bvluLYQQIj1F9zZo6O5t+N3y3VoIIUR6iq6X3HhbkRBCiLJRDFMIIQKRYAohRCASTCGECESCKYQQgUgwhRAiEAmmEEIEIsEUQohAbgvBXLx4sdu6dWu0VbncrueqDPr16+eWL19u18Ayf/78aI8Q1ZO8CqbvSNOmTbPtHj16JNImT55saaJ6Ql1OmTLFNWrUyOpzw4YNbt++fdHeMMaPH+9Wr15t31+/fr2bNWuWa9KkSbT35oASXxBlzp0t7dq1s+NznooeKxMMJLRvzilKQ9nE69Mv1HUhUBAeZvv27W3duXNnW4vqz+DBg209ffp0GxBnz57tlixZYmkhIJZDhgyxz4jt/v37Xffu3d3cuXMtLQ77WXbt2uVat27tpk6dmpUYYTtnzhw7/tGjRxPH6tSpk+vbt29klTs4bv/+/V2LFi2iFJHM4cOHE/XK8sEHH0R78kveBZPRA6+BRtuhQ4esvRBRmDRo0MCdOnXK7dy5M0rJjgEDBrizZ8+6cePGmdjirdJxmjdv7kaPHh1Z3YD93mbBggWuTp067rnnnov2ZuaFF16w7yxbtsxNnDgxcayxY8cmZj+iajlx4kSiXlmyGWwrk7wL5pUrV6xjDRo0yLVt2/YWwURIvVvOdIlpEm57JvBQ+E7clo7mp3gsyVO8bOBYfvpGnC5+ntA8k8Y+b0veMoUikq+LqUrydCU5jc/kMTnPw4YNiyzC4TtlTZPjXL58OfqUHVwbArZnzx4TTc+6dets3aZNG1unYuPGjbZu2rSprTNBXdHu8CiTO+WhQ4eiTzfI1H5SlTNpflpP3ZKGdwmIsj8WS5xM5/Lp2HB8Hyv227cDtINU/SafFMSUHHf7qaeess5x5syZKPUm3i1nWtasWTNraJkKkqkZ7N2719Z09BEjRthnjkXj6tixY8opXgi9e/d2u3fvtuMQpyNPdD5PpjzzmTTyyTGw/fbbb60z0VnSkXxdoeCZcex4nkeNGlUqz5mgDPH4gPwyfWUaO2PGDEvjmhAFloYNG9rit1lCz1WvXj1bJw+eXsDwXnOFnxafPn3a1ukIbT+Uc7du3dy2bdtMhBFjX2ZcD99lugnsZ9svnpBz+eMgooQ/Pv/8c7Nj25+vOkNbpX+wMPiU1Seqkpr8r6SkJPiNRb6jp4OKxIXOBjo/8So6czJ0kvhIT4NgFKWjem8iGUZY4kQ0UO+hDBw40D4PHTrUtoFKoGFin+3U8bXXXkvky5cJXrLPb6Y8ey+DGF/83Bwrm+vKhrfeeitxbH/tffr0KZXXssAWXn311cR38KAQBcTQx+bixLfJd8i5Hn744ehT9iA28MUXXwS1VS/Kx44ds3U6smk/8+bNS1wnniH1DpQ9C4MHZYbAparrkHPRx/xxLl68mOhzvj5CCC2fXNiEasLXX39tA8HHH39sdYKzgTZw7ZRpeUM8ucIEMxtOnjxpBZAO3wCzgULo1auXfaYS4yA2xKOIb8ZJNeWiAeF90ECZDq5YsSLac2PkBxppMvXr148+hRPv+DT6eIMJyTOeIg0juQGk6kBlXVc2xI/N9JNGWLdu3SglM3RE8hy/dmJNpOOp0SniHRfGjBlj62zIdjCgfCBeRitXrrS00LaK2Kcqe0827SdePohZtmTbVuPXkU15h/TlXNmEQn9I7hP/+3//b/Oan3zyyeonmDSGeIOobJiGMH3E+yTeCelG0Lg3k+qGAxWXqmKznd4mw6gfJ5s8h5DpupIh/lfe+GEh4MMyySLGQATJIuTLh2umjhlQfBvN1FZ9mABPJhO5aj+XLl2KPqWnstpqnNC+nCubEHCY8DLjbXzLli0FE2YoiBhmOig8RtulS5cGPZqCl8pCY0Og/PQMEBq8OhocnTC+lGd6G+f555+39fbt24PzTPyPPCaLbSrKui5AID2IivdQkol778nHCAHvkvPHY5EtW7a0NV5GrqBOEL8uXbokRBJ8HOvIkSO29vjy4c46d7mz8ULo6FwX4uyPn4pcth8//U8n0pXZVgudCRMmuBdffDHaugEhCggZaCqbu4YOGzaN+GXJ9RJ38JOP3acnP4t2VT7cdKDx7NixI0px7pFHHnE9e/a0dDy0p59+2m4CFBcXu8cff9wK9JtvvnH33HOPu//++82GAm3cuLGJFNDQ+N6PfvQj9/7771vnw9PjRg3pTJV55pPz/OQnP0k59UmHPxfn5vs8koJocIzf/OY37u677w7KM6PoE088Yd7RD3/4w0R+OP6mTZtKnaus6+I7PMf64x//2Dr9s88+686fP283XJLLh2kzNojLT3/6U8sr3vC5c+fs+JlAmP/Df/gPdlODa0Z0OTeC84//+I+R1Q04J7z77ru2zpYHH3zQ8kqdcS6Ox2fEhBgqJJdPeaG8qAsEmjgtd+EpV66P9uhnCpnaT6r8YIP4xdOoe47z6KOP2j7KEzv6ITefMp2LgY96plw4X82aNc3mwoULwXVZqPh6x5GgbXHNLFevXrWbi/meORXxA2hffzfFKcQfQWP059k4Oj8xQoLguOc0DDwP/2BzMozC3Fmjg//85z+3NEZnAvD+zi5CxVKrVi3bH4qfDvrvk5dFixYlntcLzTNeEDd88Bq5A+qP16pVK9ufilTXxQPXHINGxpMGa9eutfRU5UM+aIQIJqM1+c5mKrVq1Sr7DpBXOjt3el955RVLyyV45mvWrLHPnIsy4lzJ3kcuoC4mTZpkx6c9+LqgDn0HzVX7AeqR50URaurCH8uT6VzUNds+zONtbocH4al3QhGUPddE+VAO9JVC8K5rrFy9ugT1vlZ8za1e8Vu3dfsfo13idsHfOaXxCSHKT0HHMIUQopAo6Cm5EEIUEkX8Jnn9Bg30u+RCCJEBTcnvAHiYWfFLISqOBFMIIQKRYAohRCASTCGECKSINxU5/mMthBAiLUVfRR+EEEKUTdHW0u8xEEIIkYai/5z+bf9CCCFi3Lzpc+zG76UIIYRITUIwj//5YPRJCCFEKiLBvOjO397vJRVCiApT9Ot/5T55A9co9S+lCiGEiCjq9cS99qHVDx+1tRBCiNQUPRJ9cI8Mij4IIYRIhf40UgghApFgCiFEIBJMIYQIRIIphBCBFF27ds1+D1lvKxJCiLIp8j+A9vVXN35vWwghRGqK/A+g1b+3QZQkhBAiFYphCiFEIAU/JV+8eLHbunVrtFW5VOW5hBDVj7xPydu1a+dmzZrl1q9fb2LFMn/+fNejR4/IQghxp9GkSRM3evRoc2LQhsmTJ0d78ktep+SI5Zw5c1z37t3d0aNH3YYNG9yuXbtcp06dXN++fSMrIcSdBM7SokWL3IgRI1zDhg3d/v373dmzhfE6tRq//ad/KrlWfM3xeNH/WPVPbuv2P0a7Kh9Gj7Zt27ply5a5JUuWRKk3hPTQoUP22dv06tXLtiuTqjyXEOJW8Czffvtt+7xgwQK3ceNG+1wo5M3DRBQRJzzKuFiCF8s4uOd+2o6wJU/Z2b969erEtJ5pPoUfp1+/fjbd9zbYZ3L1x48fb7Z8NxTyxxInVRrnXr58eSI/Pk9xMl1X/HuUiT+e3/aEnEuIfEN7r1OnTkGKJeRNMFu0aGHr06dP2zoT3bp1c9u2bTOBRWjHjRsX7XFu2LBh5r4D03rEoGPHjm7u3LmWBgjelClTXOvWrW0/dt9++63r37+/VVI6sIe9e/faOlcgxJwbyEt88YRcF+mHDx82ER08eLD7/PPPzY5tX0Yh5xKiEGjZsqVNv+vVq5dwFFiX1UerkprROhgvPOmgE86ePTvaysyxY8eiT2Uzb968hOeJl0ic0zNw4EAr5KFDh0YpN0YqxAYva+fOnQnBmD59um17uJ50Ixnf5Tz79u3LeQzFCzGxmnh+4oRcF2WN98ggcvHixUTZ482SBiHnykRIvVNOsknNnW4Tqgm02VOnTlnb37Nnj6tdu7br2rWrtXnabqrZZ1WStWCePHnSCiAdFF42IEghrne8oM6cOVNKMJs3b25rRqNk6tevb2tEA08sWTBSnRsBatCggd2Munz5sluxYkW0J3fs2LHD8jRz5kxrIMePH3cHDx50q1atiizCritOvOzHjBkTfQo7VyZC6l02skkFNtlQq1Ytmx15J4WZFtuDBg3Ku2Dm7aYPMcw33njDCnPixIlR6q14Tyl+IwZBw2P0aQgKx0lVaUylKXjin4hFXEiSiXtlHkS2rO+kwscq498jfoj4xtOYNjOStmnTxrVq1cq2yePw4cNtf8h1gS8P4pvpBp9M5xKiEKDNJ/c52irTcvpBNrPXyqDotRkz3LqwWXFOYaSgYPAUKxqfoOPjQSEiCEZ88aLCY0uIYfxGSDoQYhbEiu8wwmULgWsPFe69xTjkjRteTGeYdtNYsPN5DLmuUDKdS4hCgHbKo0T0GQ8DPVy6dMnW+aTGbxdNLPn1wjOu5z887T6q4seK6KxTp041cUEcPvnkE0tv1qyZCdzChQuDPEwfX8OD45ktYnlA/GPatGn2OX4ubhx5G6bePv6SfC4qzT/iMHLkyGCRwtNjOo/gEj4gkA00BG5ccV1cA/m7cuWK7SMf3NCBAQMG2DrTdbGfAYfjk29/XevWrSs1dQk5lxCFgO/b9LV4DBOy6YOVxV3P/tcXpnV8orWr992U/M8HD7hPT34W7ap8uEP+4YcfusaNG7v77rvPOj8e1dWrV00wP/roIxtd2L906dLoW8717NnT7HwaN46+/PJLE6QuXbrYPhbSNm3aZDac68SJEyaCjz76qC3YfO9730s8XpN8LoQKcSFf5A+vLATvmfK9Bx54wESXEMRDDz1k5+X4nMtfBwt555q5MeOfHMh0Xc8++6w1LvIMDz74oO1n4InfTAs5lxCFAPH2+++/35wm+s8PfvADi7e/9tprFivNNzXat29fUnJfb/d3wzu7P6xZWaUephBCVCeKXn7leffov//BvfMnfp9cCCFEOoqca/ydC+xco4Y3fp9cCCFEaopem7HQbWky1P20VZQihBAiJd9NyV9xk59+JNoUQgiRDr1xXQghApFgCiFEIBJMIYQIRIIphBCB6HfJhRAiEP0uuRBCBKIpuRBCBCLBFEKIQIpKSkrsg18LIYRIjTxMIYQIRIIphBCBSDCFECIQCaYQQgQiwRRCiEAkmEIIEYj+NFIIIQIp4lcTa9WqZb+eKIQQIj2akgshRCASTCGECESCKYQQgUgwhRAikIIXzMWLF7utW7dGW5VLZZ5r8uTJaY/dr18/N378+GgrO6qyfIS407G3FfklH7Rr187NmjXLrV+/3jo+y/z5812PHj0ii9ufCRMmuCFDhphwCnGnQvv3GpBqWb16dWSZP/LqYSKWc+bMcd27d3dHjx51GzZscLt27XKdOnVyffv2jaxufxgs9u3b5/bu3RulCHHncvjwYdMCv9A3YM+ePbbOJ3kVzBdeeMHVqVPHLVu2zE2cONHNnj3bTZkyxY0dO9ZNmzYtsrr9WbhwoV3/2bNnoxQh7lxOnDhhWuCXK1euWPq6detsnU9q/OpXvyq5du2au3r1qntvw7+4rdv/GO2qXPAu33jjDfMoEcl0EKNr27atiSrTVgSWEWjp0qVu586dkZVzo0ePdv3793dNmjSxbY6L9xoXIVx+bPBggX2MWlQK+HP16tXLtoHYIuclbLBx48YotWzIw6RJk8xzBqYTVDrn9scmL8nXHT+vh9jnY4895po3bx6l3Mj30KFD7XOu8gwh56L8t2zZkqiLU6dOud/97ndu1apVZuPrFS5fvpyYOSTnI1NdQEidZoI8w5gxY2wNqdIyXTtksgm59uS2wTVdvHixVNuAXFx7dYPyGzRokHmU8TJjBnb+/Hk3fPjwKCV/5M3DbNGiha1Pnz5t60x069bNbdu2zRoOAjFu3Lhoj3PDhg1zI0aMsM80UASqY8eObu7cuZYGXqBat25t+7H79ttvrVHSONOBPWQzXZ4xY4Z1CD+1aNq0qevSpUu09wYnT560fSzYpQLhI3/gbf1SFuXJc+i5EAvsdu/ebeXYqFEjN2rUKGvsHv+9/fv3u2bNmlm5U/6ekLoIqdNcEXLtoeXj09Jde3LbaNCgwS1toyqvvZA4dOiQDZhxsaQsGJg/+OCDKCW/1IzWwfjGng4qOO4lZOLYsWPRp7KZN2+eFShwU8h7JjBw4MBbvAE6Ho2Om0d4or6xT58+vZRnyvWk88L4LudhxAsd2fEIEHQ6RNyDSQ5Ycy3+evBc+E4yXvgWLVpUKs9lUZ48QzbneuuttxJl5su5T58+iWvy1wWUB9eOSPjvhNRFSJ3mipBrD7HJdO2hbSMX1x7ST2kjVWWTjSbE+Y//8T/aevPmzbbON1kLpveM0kHhZQOdO51gxYk3xDNnzpQSTD9FYiROpn79+ramwdNQkxtbqnMjYIz8NHSmVitWrIj2ZKZz5862Jg4T58CBAymn3GWxY8cOy/fMmTNt6nv8+HF38ODBxPQ3TkXyDNmcK15mS5YssY5ct25d20YUnnvuOdehQwfb9uBle0LqIqROc0XItYfYZLr20LaRi2sP6adVaVMeKE/6OeUd7//5JGvBTB5FywuFDExbcgGVkqrSynPn2XtAQGWFjOiVAZ2ReCEeR5s2bVz79u2tY7GdHM+paJ6zOVdZMG1kms6U3QfrU3nPIeSyTuMwxWNQ8YRce4hNIV17aD+tSptsoWyBci8U8hbDpIDxMhhBfNyqvCAQjP40JryU+OKnpQTgabxMaTJBR2Ch0fId4iihpBsI6GDlgfzjxTHlYYqG14EHknwdFcmzJ/Rc8Zhc/DykY88NOZ5yYBrG8ZIJqYuQOg0FgfTgtXgPLk7ItZdlE3LtoW0jl9denfGzSG4qFgp5u0sONLSpU6cm7rZ+8sknlk6DolPxuE2qu8BMP/GofJqP1+A1EGznriPUrl078XhS/Fz+ziQwjeW7kHwuOtfbb79tn0eOHBncWP1xEC/CBy1btnQNGza04/ljM0iwDezH3nsUfI/OwXVyDd5bIa8E/2HAgAG2zlWeszkXdcWUFLp27WplyqNgwF1iBsK1a9e6evXqJbwEXiHITTvqNKQuQuo0BJ4UIEwRrwugPnx+Qq49k42/Q57p2kPaRq6uvTpDeRDbpZx45K5QuGvQoEHT+Cuf69evu+PHjrpPT34W7ap8uEP+4YcfusaNG7v77rvPRhRGVsQbwfzoo4+s0bGfkdvTs2dPs/Np3Dj68ssvreFxx5F9LKRt2rTJbDgXsSMq4tFHH7UFG94D6oPuyeeiwdIxyBf5SxVTSgV39OgU/noYCD777LNSef77v/9768ikcU7gM8tf/vIXi5mRH3+tLFwf5cKNB/90Qa7ynM253nnnHffEE0+YZ/TVV1+ZQCMI586dc0VFRSYk/OHBD37wA/f73//e4m4IA2VOPkPqIqROQ6DD+bp44IEHLK+I20MPPZTIT+i1l2UTeu0hbSNX116def75562M3n//fdOBQiGvHqaoXiR7syI3+Kc+VK6FT9H/+T//x56BYy2EqFrwsvEeCXOIwqfo3gYNHUv9extESUKIyoLYNfFQFuKrhAiI5RbSjQ2RHntbEfHLfL2tSIg7CTxKbliytGrVyuKgCGf8eU5RuNRY/pvflhC/LC4uduvWrlEMUwgh0lDwLxAWQohCQYIphBCBSDCFECIQCaYQQgQiwRRCiEAkmEIIEYgEUwghApFgCiFEIBJMIYQIRIIphBCBSDCFECIQCaYQQgRibysCva1ICCHKRh6mEEIEIsEUQohAJJhCCBGIBFMIIQKRYAohRCASTCGECESCKYQQgUgwhRAiEAmmEEIEUmPZ8t+U8BO7/NTu7/75f1T5z+z26NHDPf/8865169b2g/aXL192+/fvd3PmzHFnz551W7dujSxvsm/fPrdixQq3c+dO2168eLFr27atfU5mw4YNbvbs2Sltko8jhMg/kydPdl26dLHfcIdC6qd59TD79evnZs6caWKJSCJu/LB99+7d3ejRoyMrZ8LJPhYEFPupU6e6du3aRRY38DbxhcKO49N37dqV9jhCiPyAWPbv399duHAh0U87derkXnzxxcgiv+TVw1y9erWrW7eumz59eqnRAyHduHGjfUYgDx8+7MaMGWPbgJiOGDHCrVmzxi1cuDDhPfbq1SuyuJVUNpxnypQpdo5p06ZFqUKIfEE/bd68uRswYECU4qxv0m9feumlvHuZefMwEStc7m3btt1SCF4s03HmzBlbI7YVwZ+nadOmtg4BbxSBZVm/fr2bP3++XUu20DBY4qRKY8Rdvnx54pwsDDRxGEBI8/tnzZqVmM5A/HuEQPzx/LYQhcLFixdtHW+/QKiuIKbkvKXIL1UJbjYkT5lDqFevnq0vXbpkaw/iEl8qa6rtp/WEEZo1a2ZeanlEMxPjx4+36Qn4c/rFM2zYMPO2gXSEsGPHjm7u3LmWBqTjpdMIBw8e7D7//HOzY3vcuHGRlRD5h3sXp06dcosWLbI+jEPSvn17t3Tp0sgiv9SM1sH4aWw66JzcZMkWxG3QoEHR1g0h9R5gw4YNrfCgdu3armvXrjbirFy50tI8Xlw8HOPQoUPR1q0gNvDFF1/YOgSOFz8mooOnRtw1k2ecLcRYgcaTbnQdOHCgxXiHDh0apdwMWeA98j3qg/IjJMEI7usHbzbdzbJkQuqd8pZNau50m1BNoC1//PHH7qmnnkr0ZwZ30gqBrAXz5MmTVgDpoPDKQ4sWLW4RPC9AiFJ8H4WKB8U6TlkxTI8X3gYNGpjIpRLesiAvzz33nOvQoUOUcoNspvWh7Nixw0STG2OMusePH3cHDx50q1atiiycxXuARpVM/fr1o083iddPPC6ciZB6l41sUoFNKISTmCH5+xr0t0mTJpnnybosB6gqqPH2suWJmz7vvvM/q+ymj/dY6OjJN1xIowIYlfgcv+lDgSJ0Y8eOTRSe95RCbvp4EEruyGf7uALxv0aNGrndu3e7K1euWBpinnxjKhM+Vhn/DscmX/E0GgxeZJs2bVyrVq1sG/EcPny47ad8aJCpGuzevXsTgwoDBfmk/HLtCQuRK2jPyZrgtcLf5M0nebvpQ6dFHJheZ3PjgcKEkSNH2jpbEFUW7sJNnDgxK7Gk4vDoiKdQoQj6kiVLor3Zw3OnHoTQe4txEDzOQYNh2s31Y+fLDPHEC0UcKdP4kuyBC1EdSJ6t+XsWhcBdzzzzf027fv26Yzly+JD79ORn0a7KB6/2iSeecH/zN3/jfvjDH7rOnTu7nj17mgAcO3bMpqSjRo1y58+fd++++659h3TE4kc/+pH74IMP3Llz58wDa9y4sbv//vvt+/Hlnnvuse94m4oEj++++2739NNPWwXilT/++ONuwoQJ7ptvvrHzcH48zxDIG8HsH//4x3YD7Nlnn7XrJF7rj4NX+JOf/MR169bN7LkGzkm5+ZgQXm7v3r0tX4QJfBnyPcQVkefYLVu2tOuvWbOm2fCcG2UnRCFB32YmyJr+QTv+6U9/am3+zTffzHubzatgHjhwwH355ZcmNjzZj1CyML2lsyN0yYIJiBWigABs2rQpIYb++/HlL3/5iwlvLgSTyioqKrIYS9++fd0PfvAD9/vf/95ihQjSo48+Gnx8ptE0DMTygQcecG+//bbd+HrooYcSxyHPXKe/FsSUMAI3gU6fPm3HoYwoQ/bFy5A0ygaxZCrOtcODDz5o+z/55BP7rhCFBE7QfffdZ/c06Bv0MeL2tPmPPvoossofeYthCiFEdUMv3xBCiEAkmEIIEYgEUwghApFgCiFEIBJMIYQIRIIphBCB2NuKeAazqt9WJIQQ1Q15mEIIEYgEUwghApFgCiFEIBJMIYQIRIIphBCBSDCFECIQCaYQQgQiwRRCiEAkmEIIEYgEUwghApFgCiFEIBJMIYQIRIIphBCBSDCFECIQe72bLd/9E0IIkR55mEIIEYgEUwghApFgCiFEINVKMPv16+fGjx8fbeUWjr1169bEsnjx4miPuF3IVfvhOMuXL0+0lfnz50d7xO1OXgUzLlAsNMLRo0dHe29lwoQJbsiQIdZgc83Jkyfdhg0bbDl79myUKm4nctF+evTo4aZMmeIaNWpkbZb2sm/fvmivyAWTJ092q1evTugCAxLlXgjc9Z//8zPT+BG06yXX3dHDf3afnvws2lX5jBo1ysRp+/bt7vPPP3fNmjVzTzzxhPvhD3/oNm3aFFndpEGDBu7q1atu5cqV7vLly1Fqbjh37pzbsWOHLX/zN39jae+++66txe1BLtoPHuqDDz7oXn31Vfeb3/zG2stHH30U7RUVBbHs37+/O336tPvTn/7kzp8/77p06WK68P777+e832dL3qfkFy5ccLNnz3bTpk1zQ4cOtdG6e/fuKb2AhQsXuokTJ8oDFOUiF+0H0T116pTbuXNnlCJyyVNPPWXlO2bMGNMFvPk1a9a4OnXquN69e0dW+aPgYphvvvmmrXv16mVrhNO75n5JBSNTPK7EglvvISbpp/zr16+3/WwPGzYssgijXbt2ieNzHKYLcXHn+OxLDi347zEwhEKek2OpqdIyXTuQn/g0Z9asWa5JkybR3pvhEWyY/vjj+e1soEz9uSij+Lnw0EjnmL5uyT/wHX9trJPri7Rs8xLSfrI9V1leTlnXLjKDMH7yySfR1g2OHTtm64cfftjW+aTgBPPQoUPmATCSQzy2ePjwYUtLhk6IGw/e1i9xmjdvbna7d++2Bk0cirAAYpYN/tj79++3MAKjoBfNJUuWWIfq1q2bbXv69Olj6/fee8/WuSLk2unEI0aMsM+kc+0dO3Z0c+fOtTQgnfKlcw8ePNhCJNixPW7cuMgqM5zL23PMo0eP2oxhxowZluYbf/369a3sKKvatWtbGue6ePGifQbqi3Lctm2b27Vrl2vbtm1WeYGQ9gNlnYu6RdRZGjZsaIvfZvHtJ9O1izBatmwZfbpBp06dok/5p2a0DobGg0Ckg4aCK10RmKZ7EFAWoHHSkJNp3bq1rRctWpRxqvTWW2+5jRs32mc8CoQEMfPnyEQ8P0Anx6OgY/jjIsh4yHQkb0seEYdcT+VCrn3gwIE2CBHy8Phrx4vie9SZL19Ey9chnlaqMk+HHxiI8flr98egPL7++mtLq1evnpUd06+mTZtaGsQFE+bNm5c4Dt4a5ZwN8fpK13486c5Fh/WDkie+TRiJ72W6dp9WFiH9i/NVN5tQTWBQo7wotxMnTpjj5J2nS5cu2TqfZC2YfsROB4VXUXDLswnuEnhHOGbOnGkd8Pjx4+7gwYNu1apVkcVNvKgB3iCiUbdu3SglM3Ty5557znXo0CFKuUG803NTAcHEzk/B6XR4Lrkm5NrxngCPMRk8vWTidUgsKRto7DT6uDjQ8Elv0aJFovyZXuFhbt682YTce+jJ7Sd+nGQxzTXpzkVnjw8gkKpcMl17iGCG9K/qaBPKK6+8Ygv9hXKjzX788cf22c9O8knWgkmlh1R8eUGQ6ODZFDLisGXLFvOk2rRp49q3b2+Cxfbw4cMjq9zANJapPF7klStXLI3KjEP5kP+uXbvaNlM1+PDDD21dEZIHk9BrJz+pGvXevXujT1VPrVq1rDMQFvF4D/ROJbR/VUebEJgJcWMuDjM42nzc2ckXBRfDnDRpkq2zEUygoPEYmRrgsTAyIbzJgXvvyYAXslQkiyDwXY65dOlS8xzxOjhnKvD8EDemvo8//rhVeCqPNxMcw+MHk2QyXTueJ14o4kijiy98N5f4KVU8LuxjUngigA3TLOzoaOTPT3+r893nkGsX4dDeuanKmhtohUBN3lSUT3wAHXjeisJBLL0QITikgW983h47Oj3b3DjwHh+dkZsaqWKGP/vZzxKd03uA69ats7Xniy++sIYfj6O88847iUZPrOqbb76xOByeHB2e6+AGDI+uAOKIeHEjgX3cIMoWpoXkg0Zz5swZu346ZfxcIdf+29/+1sT07bfftnz46SbfQ/gZCJgC+fLFQ2WbcsnWc2CKTZ5/+ctfuj179ti0m+3kqeoDDzxg5Qbkp1WrVjkXbwhpP7ki9NpFehhsBg0aZHVF2QEOgO9X+SbvHiaNmQA6y7fffmvPXMVdcgTH7/cF6Lfp1IBI0Ml9OoLBHcrp06fb/jhMX/20lSAyN0uSG/Prr79unYnzcTw6M7E+7JYtW2aC5b05jsdNKq6DvyKJQ6fhGOw7cuRIlBrOnDlzLB9cJ8+nrV271tLj5wq5dkSBmxj+rq23ZUoMHJ9tX77ehrhbtjBQUKbAMfBsid0Sl/IwCOEB+5t7CGZ8O5eEtJ9cEXLtIjOUHTMrhHLs2LFZPYpX2dRY8o9LS4qLi13xtWK3ft0/u63b/xjtur3wdysRl6oEoULERo4cWSkelBCi6ii4GObtBNNBvDWe7ZNYClH9kWDmGOKBeJX85QiPLBGnC30GTQhR2EgwcwxxMX/ThXhsrh9rEkLkjzsmhimEEBVFHqYQQgQiwRRCiEAkmEIIEYgEUwghApFgCiFEIBJMIYQIRIIphBCBFPm3FeX7rUVCCFHoyMMUQohAJJhCCBGIBFMIIQKRYAohRCASTCGECESCKYQQgUgwhRAiEAmmEEIEIsEUQohAJJhCCBGIBFMIIQKRYAohRCASTCGECMTeVuQXIe50+F358ePHR1tClKbGr99aUnLt2jV3tfiq2/juuir9md3Fixe7tm3b2u93L1y40NImT57s+vfv72bNmuU2btzotm7daumsp02b5nr06OFmzpxpaRs2bHCzZ8+2z8D+Xr162W+CDxgwIEq9gT9XnH379rkVK1a4nTt3Rill4/OWjsOHD7sxY8bY53bt2rmRI0fab5TXqVPH0uLny0V+POSrS5curkmTJrbNcSgbys/neezYse7QoUO230MeGjZs6IYOHRpUF3cC69evt/q6k665qqBP9OnTx3Xr1s01b968VH+JM2zYMDdw4ECzoS/v3r3b+nYhUBBTcgowE+3bt7d1586dbZ0KbKgEGjyeQioQEpZdu3a51q1bu6lTp1pFhuCFyH8fOJ9P++CDDyyN482ZM8d1797dHT16NGHfqVMn17dvX7PxxI+XbX5g9OjRJmrffvttqeNMmDDBBHTJkiXW6BDvOJQPAsl34oTUxe0Mgkk97927N0oRuWLQoEFuyJAh7sKFC1HKrdAux40b52rVqmVt89SpU+YESTAj6MyMJHiO6cC7pPMjJB06dLAGnQzfx2bz5s12TMQqFXikLFOmTHELFiwwcX3uueeivWWDx+G/7z3fEydOJNIQJ3jhhRfsuMuWLXMTJ05MnA8vL7ni/XfLkx9AhOHFF19MHAdxnDRpkjt79qwt27Zts/KIC/Ezzzxj+3yeIaQubnfwrqkzykbklnXr1tlshvJNh5/Bvfrqq9ae8UBxShBNP4PKJ3kXTEYQCmTw4MFRyq1cuXLF7Bih8IpSCab3PLds2eL279+f8EjLwk+5mjZtautcgCiRRzy9uBhB8pQ4mfLkh7KBRx55xNZAZ4+fK9nLTOddhtRFCEzlly9fboOKX1avXh3tvQF5mD9/fqn9fM9DOfp9eH3YJs8aCCNwHrxsbLAlLS74ITYc15/LL8mEHIcOzVTeH4PPXFOq492J0CYzDUTMjmiD8fbrZ25lzS6rioKYklMgxPrKApunnnrKCvzMmTNR6k3wPClo9h85ciThkVY1LVq0sPXp06dtXdn4zshUns6Z6popk7iXmcq79ITURVlww8R7CQhyfPEgUHjCdA7yzz5CCnwPQfL47zEANmvWzL6TLJp4xIQRuD4GKQYCpnRxMtmcPHkycS7aUDoyHWfGjBlWxhyDYzVo0MBiyyIcZlgXL160/kt7pr59f/ezqXxSM1oH4xt7OmgouNLZQMclthHvLMkQU8KGAHAyFG7cY+KmyYgRIyzAXJZXR3AZvvjiC1vnkmPHjkWfwilPfvBKv/76azdq1CgTHBZE6PXXXy81mlMndN6XX37ZOv6iRYuiPaUJqYuyQASB46e7eeUFdfr06aVsaFvey6be4nVHHeOFIkjexjNv3ryELV5dqnBMWTbxc9FJaUvpSHcc3wYRy/iNjGTPOhMh/YsZViHZZNvfM4Fg0v5oJy1btnRr166N9uSfrAXTj8bpSDVdDgEvghEklfcIdCziGJDsZfTu3dvWjOh+WscU1HfeOH4/tjR27FauXGlpuYRrSe7YqchFfigbFsoF75FyatWqlRs+fHhkcQPqjYGETr1q1aoo9VYy1UVZ7Nixw8qdJxmY4h8/ftwdPHiw1Pn8tCtZUOPlhQARy2XmECdVuMILGNDZUhFiE0K64/jpIjHtOAcOHEi02xBC+leh2eSa2rVrWx9gVlEZx68IWQsmDSbeaHLFO++8Y53Mx+Sy4fHHH7d1smeRyoX33g3CRGXwGE8ur4cGBlR2CLnMD4LD4h+vIr4WFyUvgMmdOpmK1AXCSByZx0LatGljsWTywnaygJfF3LlzXaNGjWxG4fNRlud3uxDavwrNJlfQDxgUOae/OeRnO//rf/0vW+eTgvlLHzo2U8jyxM/4DmJDx/SLn3L6aa7H7+c5TSok2cupKFQ03hNiHTKtrWh+8MTSUb9+/ehTdlSkLsDHR5nKcVeUEEH87juPWiF+8RsmcfCUsV+6dKmJP1O+VPHWQiLdQBly81HcxLeNeCzeP+rGQJxvCkYwgWA6Qd9soNPxnWTX3U8BvfdZldDRGSmZ/nJnlWk3C3d6c/1XJAwMnANh4RzE1RBgzh8SEkhHeeoCyIPPi89P165dLT9+MMCLZhsvlv1xW/DiQwwa8WTQw+Nkis+D9rkuQwY2nwdiZuC3k8M/6YgPlNQz3+UuurhJvJyBuvTbXiD99P+Xv/xlogwRUAbdeEw+XxSUYJYnlvjkk0/aOpVnRgMmllfVkBeeg+ROKg/gMu1moYEgFLmEGBkgkpzDe9vcUKkI5Y3rEov1efH5wWuI54fyYZt8st/b+rpCfHiGlfLyXireBQ8841FzUyqX4MH4PPhpv99OFdZJxyuvvGLXxHf4Ljfv9uzZE+0V8XIG6tJv+6dLGORxAvxTE8w0EMvk55fzRV7/NFKI2x28TQSUQURUfwrKwxTidgIPiicCCCWI2wPzMIuLi83DfO9fficPU4hyQozO34QjNEG4gTgwU8yyHuMS1Qd5mELkiHhMjngssVtuZEksbx/kYQohRCDyMIUQIhAJphBCBCLBFEKIQCSYQggRiARTCCECkWAKIUQgEkwhhAhEgimEEIFIMIUQIhAJphBCBCLBFEKIQEwwS0pKXI0aNSxBCCFEauRhCiFEIBJMIYQIRIIphBCBSDCFECIQCaYQQgQiwRRCiEAkmEIIEYgEUwghApFgCiFEINVKMPv16+fGjx8fbeUWjr1169bEsnjx4miPSEVl1oUQhUpeBTMuUCzLly+3H8NPx4QJE9yQIUOss+aakydPug0bNthy9uzZKFWkozLrQtyetGvXzgZZ+nk6pyTEJp/k3cNEnBApCqdWrVpuxIgR9uP3qVi/fr3bt2+f27t3b5SSOw4dOuRmz55ty4ULF6JUkY7KrAtxezJo0CAbZMvqXyE2+STvgknBIFLTpk1zQ4cOtU7YvXv3lJ7LwoUL3cSJE+UBFgCqC5Et69atsz5Ou0lHiE0+SQjm9evXo0/55c0337R1r169bJ0cW2RJxeTJkxNuvF9Wr14d7XXm2vspP94R+9keNmxYZBEGUwZ/fI4zf/78UuLO8dmXHFrw32NgCIFpCfY9evRIlAHXCFyXn6pkyg/4/XyP4/ly8tuQqnxI8/shpC5CjtOkSRObRfhj8JlrS3U8cfvALC7TABtik08K7qaPL7AGDRrYdjy2ePjwYUtLBnHp37+/ffa2fonTvHlzs9u9e7d1zkaNGrlRo0aZ6GSDP/b+/ftds2bN3JQpUxIitWTJEnf58mXXrVs32/b06dPH1u+9956tM3Hs2DFb169f387BMWvXrm1pCM7FixftM5SVH2AfZcf3Bg8e7D7//HO7frbHjRsXWd0oH/K9bds2t2vXLte2bdtS+0PqAjIdZ8aMGTaL4Bgci7ru0qVLtFeIwqVmtA6GjkiHTAcdgCl2RYjHLxBQFsALofMl07p1a1svWrTI7dy50z6n46233nIbN260z3hBxEwRM3+OTMTzA4gOnhoC4I+LIOMhI8Teljwiepny5/n6669tXa9ePTvHqVOnXNOmTS0NvGCG5If68GXH93z94Pkll+e8efMSx8Pz4zie+LnS1YUn3XHIH99DLMeMGWNpQJ6zIaQdEt6RTWpyaVPR/l6dyFowvZeRDgq4otSpU8fEJZQdO3aYIM2cOdOE5fjx4+7gwYNu1apVkcVNvIgA3iCCWbdu3SglM3T45557znXo0CFKuUFczFauXGmCiZ2fgnfq1Mm8rVC8sD788MPmNW7evNliO95z9OUckp848fqJC5YnLr5xLzZb0h2nc+fOtj5x4oStPQcOHEiEYUIIaYeyqRqbO4kav35rScnVq1fd1eKr7v3177qt2/8Y7ap8mBYmexreQ6IikgO/eDVMqVN1LL43cOBA16ZNG9eqVSvbRjyHDx9u+703lfxd8kCDiI+S2EIqQSE+x1QeL/LKlSuWRp6Sr4NYIiI+YMAAi5MyJcUDTiXi6fB5a9mypXlsc+bMcQsWLLAR/6WXXjJRDc2PLzu8vfig4UlVPmWVd7p9mY7jPcPkMmdgYX+qc4nbj1R9P5kQm6qm4GKYkyZNsnW2IxdxTzxGOiOeGIVNLC1+swHisb2ybvikmm7yXY65dOlS6+B0eM6ZCrxePGWm/Y8//rh5zNmIJdBYiO+RFzw2BgA/tUUss8lPoYDHAnjNcdq3bx99EqJwuWvQ4MHTuEPOcvzoEffpyc+iXZUPN1z4PSE8qJ49e7oXXnjBxAGxZHoNCM7f/u3f2n7sGjdu7O6//37bvueee+zmCB7MT37yE7vRQDqeJiKF5+y9GNL4bosWLWx6jCfz05/+1N19991u7ty57ty5c2YH3ID4wQ9+YGJLR+a7ly5dcv/+7//unn76aYsrFhcX2zl4gPubb76xvJAvPD1gisnx8f4eeOAB9+c//9lt2rTJ9oXCefk+x1+7dq1dG/n/61//al44ec+Un4YNG7pnn302UXY1a9a0aTFx4vg1+/JBfD2cDy/Zp4XURabjcE5frj/+8Y+tLgiLcEOL0Ej8e+L2It5+aA/xvu/bY4hNPsm7h8nUmekay7fffuvWrFlTaiqOCPr93uvz23Q2wAtDAH16x44d3dGjR9306dNtf5wtW7ZYZ8UeEWSaHI+3weuvv26izfk4HlN87lZjt2zZMhMh78lyPCqS6+CB2zh79uyxY7DvyJEjUWo4xPnwIP1NMGKB8e2Q/FBGXIMvOzxUthHebAmpixBeeeUVK1+fty+++MLKStzexNsPxPu+b48hNvkkrzHMqiRdDLOyIWaIgI8cOVIPeZcBMV8EVDFMUcgUXAzzdoLpBR4dzyNKLNODF8H0ixitEIWMPMwcw40YzkHckulz/E69uAEDCSIJhFPwwLlBlu1TBEJUNfIwcwzTSgSAu+LEYyWWtxKPSxEfJt5M6EJiKQqdO8bDFEKIiiIPUwghApFgCiFEIEU8GMo/IYQQZSMPUwghApFgCiFEIBJMIYQIRIIphBCBSDCFECIQCaYQQgQiwRRCiEAkmEIIEYgEUwghApFgCiFEIBJMIYQIRIIphBCBSDCFECIQe1uR4ddCCCFSIg9TCCECkWAKIUQgEkwhhAhEgimEEIHcdoLJ74KPHz8+2hJCiNxR47//6tclxdeKXfHVq+79Df9SpT+zu3jxYte2bdtoqzQbNmxws2fPjrbCWb9+vatTp479zvXGjRuj1Bsgpvxu+Lp169yhQ4ei1OzYunVr9Okm+/btcytWrHA7d+6MUpyJ9lNPPWW/wc1vlO/fv9/NmTPHnT17NrIo22by5Mn2u93pOHz4sBszZky0JUT1p0ePHm7mzJlu165dbsqUKVHqjX7LNn1v2rRpUWp+KAgPE3FMXhCh8oBg8t29e/dGKTdBLBGhFi1aRCnlA0Hz+aQSW7du7aZOneratWtn+xHCIUOG2GdsEMLu3bu7uXPnWhpksuEa/DloQIBI+rQPPvjA0oS4XcDhoD/RD3xfgmeeecYcitdffz1KyR93DRw0aNr1kuvu+vXr7vixo+7Tk59FuyqfgQMHusaNG7v/9t/+m9uxY0ep5dixY5FVduzevds8Swo4mZ49e5q4/fGPfyz38UeNGuVOnz5tIx75pIK/973vuS5durhvv/3Wzs8o+NVXX7lx48a5999/323atMndf//9rnPnzq6oqMh99NFHGW1Wr16dKIuaNWta3v/0pz+Z100axxDiduPAgQPu6aefdo8++qh799133bBhw8zJ+dWvfmXtP98UfAxz+fLl5jXGR5z58+ebUOHCAy472/ElDtNb0vwU17v3qWzLw5kzZ2xdt25dywshgT179pSafhMGgDZt2gTZCHEnQn9YunSpheroJ0OHDrWZ1apVqyKL/FIQgomgxZe4OL722mu2fuGFF2zNVJap9Zo1axIxw5MnTyamqhRuMn566/cxxfX2LBWlXr16tr506VLic3JIwcdMGzRoEGQjxJ0K4khfxbEhvj9v3rxoT/7J+qaPD8CmAwEKvVmT7qZP8g0b3HKmrghdx44d3dGjR93EiROjvaVBcPEke/XqFaXcxO9LdUMoFDxSRkG8Q6hdu7br2rWrfR45cqQbPXp02nPwXRrCiRMnMtrEb+j4Ms+mbD0h9YVwyyY1ssmNTXnbbfINoHyTtWDi/Q0aNCjauhUKL1SMvGCmErdkEBeCwYgV4hmfysapCsFMhrxwswaPF8EcMWJEmWLIDZtMNrkSzJD6wkOXTWpkkxubbPsbYTdmktyLmDRpUrmfask1BfFYUYhgcpMEu4oIpr8zXVHBjAuaF/KxY8dapaYTN6YW3MhhxOQYmWzio2pFBFOI6oafUS5btsz6MvcI0s0oqxqLYSbeWFSgUIAIIEKDqLzyyivRnuzwd8abNWtm61xAnoDpOCDEjIrcNSevHjxPOHLkSJCNEHci9Ad/o2fJkiXmJOBpogGFwI3Hiq5fdyV5fKyIx2l4bCa+3HPPPSZwTCnxGon7/eIXv3Df//733X/6T//J1jzCAwjN3/7t39r3WrZsWeqY/jjw9ddfJx5Z4PGibt26mQ3Xz6NCIfBY0fnz5+2RB+DY3K3/0Y9+ZFPtc+fOuQcffNAquXfv3pYfrpPPp06dcq+++qp9L8TG88gjj1g+ORePFAlxu/IP//APrn379vYHHPRJHp+jf+Fc4JykelywKimIu+S43ckLYgIvv/yyrf2dsoULF1pMhKm1f6wI4fPf8zeRko8DTOMXLFhggofH6m0qytq1a23tvUymzdzFB47PjSqm2S+++KKlQYiNEHcS9Gf6Jf0g/ldz9C88z5///OdRSv6wGObV4qvuWnFxlccwhRCiOlHwD64LIUShIMEUQohAJJhCCBGIBFMIIQKRYAohRCASTCGECESCKYQQgUgwhRAiEAmmEEIEIsEUQohAsv7TSL2QVjapkI1s0pFLm3y/3jBrwdQLaWWTCtnIJh25tCnve2xzhV6+IYQQgSiGKYQQgSiG+R2ykU06ZFNYNophpkE2skmHbO5cG8UwhRCimqAYphBCBCLBFEKIQCSYQggRiARTCCECkWAKIUQgEkwhhAhEgimEEIFIMIUQIhAJphBCBCLBFEKIQO4aOGjQtOvXr7uS75bjx466T09+Fu3KTJMmTdyTTz7p7r77bnfu3LkotTSykY1sbkU21dOmQoJZt25dt2DBAnfXXXe5HTt2RKmlkY1sZHMrsqmeNuWakvOKNxT37NmzUcoNhg0bFn2SjWxk45HNDW4Hm5r2/yyZMGGCrffv32/r2rVru9WrV9uBYdWqVbL5DtnIRja3l025puQnTpywg7dt29Zc1fvuu8/9+c9/duvWrbOTyEY2spHN7WhTLsE8ffq0O3DggOvTp4/761//6u699173hz/8wf3mN7+JLGQjG9nI5vazKZdg4rLOnTvXNWrUyL300kuuefPmrm/fvq6oqMh99NFHspGNbGRzW9qU+znMCxcuuKVLl7pDhw65GTNmuFOnTtnnOLKRjWxkE6e62+gnKoQQIhD9pY8QQgQiwRRCiECKSkpKoo9CCCHKQh6mEEIEIsEUQohAJJhCCBGIBFMIIQKRYAohRCASTCGECESCKYQQgUgwhRAiEAmmEEIEIsEUQohAJJhCCBGIBFMIIQKRYAohRCBFNWrUuPHJr4UQQqREHqYQQgQiwRRCiEAkmEIIEYgEUwghApFgCiFEIBJMIYQIRIIphBCBSDCFECIQCaYQQgQiwRRCiEAkmEIIEYgEUwghApFgCiFEIBJMIYQIxAQz8Yo3IYQQaZGHKYQQgUgwhRAiEAmmEEIEIsEUQohAJJhCCBGIBFMIIQKRYAohRCASTCGECESCKYQQgUgwhRAiEAmmEEIEIsEUQohAJJhCCBGIBFMIIQKRYAohRCASTCGECESCKYQQgUgwhRAiEAmmEEIEIsEUQohAJJhCCBGIBFMIIQKRYAohRCASTCGECESCKYQQgUgwhRAiEAmmEEIEIsEUQohAJJhCCBGIBFMIIQKRYAohCoIvvvgi+lS4SDCFECIQCaYQQgQiwbzD6Nevnxs/fny0JYTIhnIJ5uLFi93WrVtTLpMnT46swqAD85127dpFKSJbsinDCRMmuCFDhth3hBDZUSEPc8OGDbcs+/bti/aG0alTJ9e/f3/XokWLKEVkSzZluH79equjvXv3RilCVJw7xeGpkGDOnj37lmXjxo3RXlGILFy40E2cONGdPXs2ShGi4rzwwgtu+fLlbvTo0a5JkyZR6u1Hjf/+q1+XFF8rdsXFxe799e+6rdv/GO1KD1Pytm3bul69ekUpt4JNnTp13JYtW2wKyOfDhw+7pUuXup07d9oUEq8oHfFjUwnY+orYtWuXmzNnTqLTEwoAtufOnevGjRvnmjdvntjmfKEMGzbMDR061M51+fJlt3///lLnSnVdp06dcr/73e/cqlWrzAZykWdG7TfeeMPsyMvRo0fNi/eDUmgZMv2eMmWKffakqrvyXHu8TrOBvD/22GN2zR7Ow/k9mfITQkh9hbafkPxQ1tQJXj+wb8+ePeZMeDK1DQgpnxCbqoK4+FNPPVWqbN55552s2gWPFTVt2jTaKkzuGjho0LTrJdfd9evX3fGjR9ynJz+LdqVn4MCBrnHjxu7+++93PXv2TCwXLlxw586dS9i0bNnS1apVy/3bv/2bO3/+vPvRj35kQrt27Vp3zz33uL/85S92Xo5Fo/n444/dsWPHbNmxY4cdh0b6d3/3d1YJ27dvd59//rl7/PHH3ZNPPmnHAfLBcR566CH3/e9/347LMdq3b584Xwici87iz3X16lXXpUsXa/zvvvuu2fjratasmV3Xp59+6lq3bm3X9uGHH9r15yrPNL677rrL0r/55hubcvft29d9+eWXlhZahnfffXfiON4WkYuTzbWnq9NQ6FyDBw+2a/rXf/3XRH4JFXz00UdmE5KfEELqK6QuQvLjB6Z69epZ2R86dMg1bNjQde7c2RUVFdm1hbSNkPIJsalKdu/e7VavXm1ts3bt2q5jx442KPTp08fa34EDByLL9PziF7+wgaOQqRmty0Wyd0Nl0UjizJs3L5E2a9Ys1717d/uMl8TCKEmjZJRPNZ2nwSePmozQI0aMcD169LARjNHbH+fixYuJ0dx7wqFQufDqq68m8uyPgbcXv7a33norkV+fH76PTa7yzLHi50RAaZSUoS+/kDKMH8fbJpPNtaer01AQLFi0aFFaDySb/IRQVn2F1EVIfnx/mD59eqnrQkj9uUPaRkj5hNhkItXMI46/J5HJxpcX+DZJmbz88svm/VJ28dlXdaZCglnWlNwTb9g0xmzx0w0/bYpTv3796NNNqGDPmDFjok9h0PiZYsbzfOLECUvHu4unx4VpyZIl1uDr1q1r27nKMwL53HPPuQ4dOkQpN6iMaUs2117ROsX7osPPnDnTpsfHjx93Bw8eLNWpsslPCGXVV5x0dRGSH64Jm2QBi587pG2ElE+ITSZOnjxpgpcOyiLExkN7ZUDo3bu3XSdeNLMepua3C9/NFIpcUY38PY556dKl6FN6qBQ8meSlkO/05iLPxM8GDBhgsR06J0sqQsqwkKBTjxw50i1btsympEx9me5y0+BOIFPbCCmfXJQhIo93mG5B6ENsYNq0aTb7YSAiZEO+yB/eaXk94EIk7w+uE3cBYkypYPRkJKUxUTnxhalNLsE7wGNgOuEh/gWMtHGYzniIS8XJRZ45PqM0sUYaI40TzygVmcowhGyuPRdQDlwPHYrpKR4X18u0FHKdn7LqK4SQ/HBTDht/DakIbRuZygdCbKoKZj14kwg/eSFfoW29OlHj128tKeEO+V+v/jXru+SpXHVGTyrf28Sn7cSJiPPE03Dj3377bftM4PjKlSv2mYA4I5OPs+Dec+fNTwEJLCMk7CfwTuPlfFQaNuvWrct62uYD+1Q0dzYRII5NZ/HTM39dfhoEXbt2tbuvY8eOtXPmIs90TO6Qc25uBnAjgekOMIJv27bNHhGCTGVIjAwb8Of0defrK5trz1SnmeA7lIXPZ4MGDewmAeBRQ0h+QshUX0ynQ9pPSH4QqqlTp9qx/XGA66M9QKa2ASHlE2JT3agOd8lzetPHQwcMhQa4YMEC97Of/axUp6Ozgz8W54rfXKBBAo02ng9vgxBkK5g+/sMIyTF9DCbVnTseU8EGIeIa8AT9+XKRZ9ZMa7Cjg3EORI7vsvCIjBfMTGXYrVs3E4M48fOT32yuvaLQuePlwrnwzlasWBGlZFcXIaSrr0GDBpUqi3TtJyQ/DE7c8Hn++edNvBBO4HyeTG0DQsonxEbknnJ5mHcyqbwsUbiovqoP1cHDzHsMUwghqgsSTCGECCQhmDxeJIQQIj013lryjxbDvFp81W18d51imEIIkYaikpIS+1CjRg37m8/vfe97ti2EEKI09pc+iCXUb9DQff/7t/65mBBCCOf+f/02eR1Rou+fAAAAAElFTkSuQmCC;" vertex="1" parent="1">
          <mxGeometry x="520" y="80" width="332" height="577" as="geometry" />
        </mxCell>
        <mxCell id="sP2bypRe-vGym_zLNqmd-3" value="" style="rounded=0;whiteSpace=wrap;html=1;fillColor=none;strokeWidth=3;" vertex="1" parent="1">
          <mxGeometry x="110" y="60" width="760" height="610" as="geometry" />
        </mxCell>
      </root>
    </mxGraphModel>
  </diagram>
</mxfile>
